<svg width="864" height="305" viewBox="0 0 864 305" fill="none" xmlns="http://www.w3.org/2000/svg">
<rect width="864" height="305" fill="white"/>
<path d="M741.612 62.5847L742.537 62.1949L742.731 62.6557L743 62.5425L743.269 62.6557L743.463 62.1949L744.388 62.5847L744.194 63.0455L745.12 63.4353L745.314 62.9745L746.239 63.3643L746.045 63.8251L746.971 64.2149L747.165 63.7541L748.09 64.1439L747.896 64.6047L748.822 64.9945L749.016 64.5338L749.941 64.9236L749.747 65.3844L750.673 65.7742L750.867 65.3134L751.792 65.7032L751.598 66.164L752.523 66.5538L752.718 66.093L753.643 66.4828L753.449 66.9436L754.374 67.3334L754.568 66.8726L755.494 67.2624L755.3 67.7232L756.225 68.113L756.419 67.6522L757.345 68.042L757.151 68.5028L758.076 68.8926L758.27 68.4318L759.196 68.8216L759.002 69.2824L759.927 69.6722L760.121 69.2114L761.047 69.6012L760.853 70.062L761.778 70.4518L761.972 69.991L762.898 70.3808L762.704 70.8416L763.629 71.2314L763.823 70.7706L764.749 71.1605L764.555 71.6212L765.48 72.0111L765.674 71.5503L766.6 71.9401L766.406 72.4009L767.331 72.7907L767.525 72.3299L768.451 72.7197L768.257 73.1805L769.182 73.5703L769.376 73.1095L770.302 73.4993L770.108 73.9601L771.033 74.3499L771.227 73.8891L772.153 74.2789L771.958 74.7397L772.884 75.1295L773.078 74.6687L774.004 75.0585L773.809 75.5193L774.735 75.9091L774.929 75.4483L775.854 75.8381L775.66 76.2989L776.586 76.6887L776.78 76.2279L777.705 76.6177L777.511 77.0785L778.437 77.4683L778.631 77.0075L779.556 77.3974L779.362 77.8581L780.288 78.248L780.482 77.7872L781.407 78.177L781.213 78.6378L782.139 79.0276L782.333 78.5668L783.258 78.9566L783.064 79.4174L783.99 79.8072L784.184 79.3464L785.109 79.7362L784.915 80.197L785.841 80.5868L786.035 80.126L786.96 80.5158L786.766 80.9766L787.692 81.3664L787.886 80.9056L788.811 81.2954L788.617 81.7562L789.543 82.146L789.737 81.6852L790.662 82.075L790.468 82.5358L791.394 82.9256L791.588 82.4648L792.513 82.8546L792.319 83.3154L793.244 83.7052L793.439 83.2444L794.364 83.6343L794.17 84.0951L795.095 84.4849L795.29 84.0241L796.215 84.4139L796.021 84.8747L796.946 85.2645L797.14 84.8037L798.066 85.1935L797.872 85.6543L798.797 86.0441L798.991 85.5833L799.917 85.9731L799.723 86.4339L800.648 86.8237L800.842 86.3629L801.768 86.7527L801.574 87.2135L802.499 87.6033L802.693 87.1425L803.619 87.5323L803.425 87.9931L804.35 88.3829L804.544 87.9221L805.47 88.3119L805.276 88.7727L805.548 88.8872L805.656 89.1526L806.119 88.9639L806.491 89.8781L806.028 90.0668L806.4 90.9809L806.863 90.7923L807.236 91.7065L806.773 91.8951L807.145 92.8093L807.608 92.6207L807.981 93.5349L807.518 93.7235L807.89 94.6377L808.353 94.4491L808.725 95.3632L808.262 95.5519L808.635 96.4661L809.098 96.2774L809.47 97.1916L809.007 97.3802L809.38 98.2944L809.843 98.1058L810.215 99.02L809.752 99.2086L810.124 100.123L810.587 99.9342L810.96 100.848L810.497 101.037L810.869 101.951L811.332 101.763L811.705 102.677L811.242 102.865L811.614 103.78L812.077 103.591L812.449 104.505L811.986 104.694L812.359 105.608L812.822 105.419L813.194 106.333L812.731 106.522L813.104 107.436L813.567 107.248L813.939 108.162L813.476 108.351L813.848 109.265L814.311 109.076L814.684 109.99L814.221 110.179L814.593 111.093L815.056 110.904L815.429 111.819L814.965 112.007L815.338 112.921L815.801 112.733L816.173 113.647L815.71 113.836L816.083 114.75L816.546 114.561L816.918 115.475L816.455 115.664L816.827 116.578L817.29 116.39L817.663 117.304L817.2 117.492L817.572 118.407L818.035 118.218L818.408 119.132L817.945 119.321L818.317 120.235L818.78 120.046L819.152 120.961L818.689 121.149L819.062 122.063L819.525 121.875L819.897 122.789L819.434 122.978L819.807 123.892L820.27 123.703L820.642 124.617L820.179 124.806L820.551 125.72L821.014 125.531L821.387 126.446L820.924 126.634L821.296 127.548L821.759 127.36L822.132 128.274L821.669 128.463L822.041 129.377L822.504 129.188L822.876 130.102L822.413 130.291L822.786 131.205L823.249 131.017L823.621 131.931L823.158 132.119L823.531 133.034L823.994 132.845L824.366 133.759L823.903 133.948L824.275 134.862L824.738 134.673L825.111 135.588L824.648 135.776L825.02 136.69L825.483 136.502L825.856 137.416L825.392 137.605L825.765 138.519L826.228 138.33L826.6 139.244L826.137 139.433L826.51 140.347L826.973 140.158L827.345 141.073L826.882 141.261L827.254 142.175L827.717 141.987L828.09 142.901L827.627 143.09L827.999 144.004L828.462 143.815L828.835 144.729L828.372 144.918L828.744 145.832L829.207 145.644L829.579 146.558L829.116 146.746L829.489 147.661L829.952 147.472L830.324 148.386L829.861 148.575L830.234 149.489L830.697 149.3L831.069 150.215L830.606 150.403L830.978 151.317L831.441 151.129L831.814 152.043L831.351 152.232L831.46 152.5L831.351 152.768L831.814 152.957L831.441 153.871L830.978 153.683L830.606 154.597L831.069 154.785L830.697 155.7L830.234 155.511L829.861 156.425L830.324 156.614L829.952 157.528L829.489 157.339L829.116 158.254L829.579 158.442L829.207 159.356L828.744 159.168L828.372 160.082L828.835 160.271L828.462 161.185L827.999 160.996L827.627 161.91L828.09 162.099L827.717 163.013L827.254 162.825L826.882 163.739L827.345 163.927L826.973 164.842L826.51 164.653L826.137 165.567L826.6 165.756L826.228 166.67L825.765 166.481L825.392 167.395L825.856 167.584L825.483 168.498L825.02 168.31L824.648 169.224L825.111 169.412L824.738 170.327L824.275 170.138L823.903 171.052L824.366 171.241L823.994 172.155L823.531 171.966L823.158 172.881L823.621 173.069L823.249 173.983L822.786 173.795L822.413 174.709L822.876 174.898L822.504 175.812L822.041 175.623L821.669 176.537L822.132 176.726L821.759 177.64L821.296 177.452L820.924 178.366L821.387 178.554L821.014 179.469L820.551 179.28L820.179 180.194L820.642 180.383L820.27 181.297L819.807 181.108L819.434 182.022L819.897 182.211L819.525 183.125L819.062 182.937L818.689 183.851L819.152 184.039L818.78 184.954L818.317 184.765L817.945 185.679L818.408 185.868L818.035 186.782L817.572 186.593L817.2 187.508L817.663 187.696L817.29 188.61L816.827 188.422L816.455 189.336L816.918 189.525L816.546 190.439L816.083 190.25L815.71 191.164L816.173 191.353L815.801 192.267L815.338 192.079L814.965 192.993L815.429 193.181L815.056 194.096L814.593 193.907L814.221 194.821L814.684 195.01L814.311 195.924L813.848 195.735L813.476 196.649L813.939 196.838L813.567 197.752L813.104 197.564L812.731 198.478L813.194 198.667L812.822 199.581L812.359 199.392L811.986 200.306L812.449 200.495L812.077 201.409L811.614 201.22L811.242 202.135L811.705 202.323L811.332 203.237L810.869 203.049L810.497 203.963L810.96 204.152L810.587 205.066L810.124 204.877L809.752 205.791L810.215 205.98L809.843 206.894L809.38 206.706L809.007 207.62L809.47 207.808L809.098 208.723L808.635 208.534L808.262 209.448L808.725 209.637L808.353 210.551L807.89 210.362L807.518 211.277L807.981 211.465L807.608 212.379L807.145 212.191L806.773 213.105L807.236 213.294L806.863 214.208L806.4 214.019L806.028 214.933L806.491 215.122L806.119 216.036L805.656 215.847L805.548 216.113L805.276 216.227L805.47 216.688L804.544 217.078L804.35 216.617L803.425 217.007L803.619 217.468L802.693 217.857L802.499 217.397L801.574 217.787L801.768 218.247L800.842 218.637L800.648 218.176L799.723 218.566L799.917 219.027L798.991 219.417L798.797 218.956L797.872 219.346L798.066 219.807L797.14 220.196L796.946 219.736L796.021 220.125L796.215 220.586L795.289 220.976L795.095 220.515L794.17 220.905L794.364 221.366L793.439 221.756L793.244 221.295L792.319 221.685L792.513 222.145L791.588 222.535L791.393 222.074L790.468 222.464L790.662 222.925L789.737 223.315L789.543 222.854L788.617 223.244L788.811 223.705L787.886 224.094L787.692 223.634L786.766 224.023L786.96 224.484L786.035 224.874L785.841 224.413L784.915 224.803L785.109 225.264L784.184 225.654L783.99 225.193L783.064 225.583L783.258 226.043L782.333 226.433L782.139 225.972L781.213 226.362L781.407 226.823L780.482 227.213L780.288 226.752L779.362 227.142L779.556 227.603L778.631 227.992L778.437 227.532L777.511 227.921L777.705 228.382L776.78 228.772L776.586 228.311L775.66 228.701L775.854 229.162L774.929 229.552L774.735 229.091L773.809 229.481L774.004 229.941L773.078 230.331L772.884 229.87L771.958 230.26L772.153 230.721L771.227 231.111L771.033 230.65L770.108 231.04L770.302 231.501L769.376 231.891L769.182 231.43L768.257 231.82L768.451 232.28L767.525 232.67L767.331 232.209L766.406 232.599L766.6 233.06L765.674 233.45L765.48 232.989L764.555 233.379L764.749 233.84L763.823 234.229L763.629 233.769L762.704 234.158L762.898 234.619L761.972 235.009L761.778 234.548L760.853 234.938L761.047 235.399L760.121 235.789L759.927 235.328L759.002 235.718L759.196 236.178L758.27 236.568L758.076 236.107L757.151 236.497L757.345 236.958L756.419 237.348L756.225 236.887L755.3 237.277L755.494 237.738L754.568 238.127L754.374 237.667L753.449 238.056L753.643 238.517L752.718 238.907L752.523 238.446L751.598 238.836L751.792 239.297L750.867 239.687L750.672 239.226L749.747 239.616L749.941 240.076L749.016 240.466L748.822 240.005L747.896 240.395L748.09 240.856L747.165 241.246L746.971 240.785L746.045 241.175L746.239 241.636L745.314 242.025L745.12 241.565L744.194 241.954L744.388 242.415L743.463 242.805L743.269 242.344L743 242.457L742.731 242.344L742.537 242.805L741.612 242.415L741.806 241.954L740.88 241.565L740.686 242.025L739.761 241.636L739.955 241.175L739.029 240.785L738.835 241.246L737.91 240.856L738.104 240.395L737.178 240.005L736.984 240.466L736.059 240.076L736.253 239.616L735.327 239.226L735.133 239.687L734.208 239.297L734.402 238.836L733.477 238.446L733.282 238.907L732.357 238.517L732.551 238.056L731.626 237.667L731.432 238.127L730.506 237.738L730.7 237.277L729.775 236.887L729.581 237.348L728.655 236.958L728.849 236.497L727.924 236.107L727.73 236.568L726.804 236.178L726.998 235.718L726.073 235.328L725.879 235.789L724.953 235.399L725.147 234.938L724.222 234.548L724.028 235.009L723.102 234.619L723.296 234.158L722.371 233.769L722.177 234.229L721.251 233.84L721.445 233.379L720.52 232.989L720.326 233.45L719.4 233.06L719.594 232.599L718.669 232.209L718.475 232.67L717.549 232.28L717.743 231.82L716.818 231.43L716.624 231.891L715.698 231.501L715.892 231.04L714.967 230.65L714.773 231.111L713.847 230.721L714.042 230.26L713.116 229.87L712.922 230.331L711.996 229.941L712.191 229.481L711.265 229.091L711.071 229.552L710.146 229.162L710.34 228.701L709.414 228.311L709.22 228.772L708.295 228.382L708.489 227.921L707.563 227.532L707.369 227.992L706.444 227.603L706.638 227.142L705.712 226.752L705.518 227.213L704.593 226.823L704.787 226.362L703.861 225.972L703.667 226.433L702.742 226.043L702.936 225.583L702.01 225.193L701.816 225.654L700.891 225.264L701.085 224.803L700.159 224.413L699.965 224.874L699.04 224.484L699.234 224.023L698.308 223.634L698.114 224.094L697.189 223.705L697.383 223.244L696.457 222.854L696.263 223.315L695.338 222.925L695.532 222.464L694.606 222.074L694.412 222.535L693.487 222.145L693.681 221.685L692.756 221.295L692.561 221.756L691.636 221.366L691.83 220.905L690.905 220.515L690.71 220.976L689.785 220.586L689.979 220.125L689.054 219.736L688.86 220.196L687.934 219.807L688.128 219.346L687.203 218.956L687.009 219.417L686.083 219.027L686.277 218.566L685.352 218.176L685.158 218.637L684.232 218.247L684.426 217.786L683.501 217.397L683.307 217.857L682.381 217.468L682.575 217.007L681.65 216.617L681.456 217.078L680.53 216.688L680.724 216.227L680.452 216.113L680.344 215.847L679.881 216.036L679.509 215.122L679.972 214.933L679.6 214.019L679.137 214.208L678.764 213.294L679.227 213.105L678.855 212.191L678.392 212.379L678.019 211.465L678.482 211.277L678.11 210.362L677.647 210.551L677.275 209.637L677.738 209.448L677.365 208.534L676.902 208.723L676.53 207.808L676.993 207.62L676.62 206.706L676.157 206.894L675.785 205.98L676.248 205.791L675.876 204.877L675.413 205.066L675.04 204.152L675.503 203.963L675.131 203.049L674.668 203.237L674.295 202.323L674.758 202.135L674.386 201.22L673.923 201.409L673.551 200.495L674.014 200.306L673.641 199.392L673.178 199.581L672.806 198.667L673.269 198.478L672.897 197.564L672.433 197.752L672.061 196.838L672.524 196.65L672.152 195.735L671.689 195.924L671.316 195.01L671.779 194.821L671.407 193.907L670.944 194.096L670.571 193.181L671.035 192.993L670.662 192.079L670.199 192.267L669.827 191.353L670.29 191.164L669.917 190.25L669.454 190.439L669.082 189.525L669.545 189.336L669.173 188.422L668.71 188.61L668.337 187.696L668.8 187.508L668.428 186.593L667.965 186.782L667.592 185.868L668.055 185.679L667.683 184.765L667.22 184.954L666.848 184.039L667.311 183.851L666.938 182.937L666.475 183.125L666.103 182.211L666.566 182.022L666.193 181.108L665.73 181.297L665.358 180.383L665.821 180.194L665.449 179.28L664.986 179.469L664.613 178.554L665.076 178.366L664.704 177.452L664.241 177.64L663.868 176.726L664.331 176.537L663.959 175.623L663.496 175.812L663.124 174.898L663.587 174.709L663.214 173.795L662.751 173.983L662.379 173.069L662.842 172.881L662.47 171.966L662.006 172.155L661.634 171.241L662.097 171.052L661.725 170.138L661.262 170.327L660.889 169.412L661.352 169.224L660.98 168.31L660.517 168.498L660.144 167.584L660.608 167.395L660.235 166.481L659.772 166.67L659.4 165.756L659.863 165.567L659.49 164.653L659.027 164.842L658.655 163.927L659.118 163.739L658.746 162.825L658.283 163.013L657.91 162.099L658.373 161.91L658.001 160.996L657.538 161.185L657.165 160.271L657.628 160.082L657.256 159.168L656.793 159.356L656.421 158.442L656.884 158.254L656.511 157.339L656.048 157.528L655.676 156.614L656.139 156.425L655.766 155.511L655.303 155.7L654.931 154.785L655.394 154.597L655.022 153.683L654.559 153.871L654.186 152.957L654.649 152.768L654.54 152.5L654.649 152.232L654.186 152.043L654.559 151.129L655.022 151.317L655.394 150.403L654.931 150.215L655.303 149.3L655.766 149.489L656.139 148.575L655.676 148.386L656.048 147.472L656.511 147.661L656.884 146.746L656.421 146.558L656.793 145.644L657.256 145.832L657.628 144.918L657.165 144.729L657.538 143.815L658.001 144.004L658.373 143.09L657.91 142.901L658.283 141.987L658.746 142.175L659.118 141.261L658.655 141.073L659.027 140.158L659.49 140.347L659.863 139.433L659.4 139.244L659.772 138.33L660.235 138.519L660.608 137.605L660.144 137.416L660.517 136.502L660.98 136.69L661.352 135.776L660.889 135.588L661.262 134.673L661.725 134.862L662.097 133.948L661.634 133.759L662.006 132.845L662.469 133.034L662.842 132.119L662.379 131.931L662.751 131.017L663.214 131.205L663.587 130.291L663.124 130.102L663.496 129.188L663.959 129.377L664.331 128.463L663.868 128.274L664.241 127.36L664.704 127.548L665.076 126.634L664.613 126.446L664.986 125.531L665.449 125.72L665.821 124.806L665.358 124.617L665.73 123.703L666.193 123.892L666.566 122.978L666.103 122.789L666.475 121.875L666.938 122.063L667.311 121.149L666.848 120.961L667.22 120.046L667.683 120.235L668.055 119.321L667.592 119.132L667.965 118.218L668.428 118.407L668.8 117.492L668.337 117.304L668.71 116.39L669.173 116.578L669.545 115.664L669.082 115.475L669.454 114.561L669.917 114.75L670.29 113.836L669.827 113.647L670.199 112.733L670.662 112.921L671.035 112.007L670.571 111.819L670.944 110.904L671.407 111.093L671.779 110.179L671.316 109.99L671.689 109.076L672.152 109.265L672.524 108.351L672.061 108.162L672.433 107.248L672.896 107.436L673.269 106.522L672.806 106.334L673.178 105.419L673.641 105.608L674.014 104.694L673.551 104.505L673.923 103.591L674.386 103.78L674.758 102.865L674.295 102.677L674.668 101.763L675.131 101.951L675.503 101.037L675.04 100.848L675.413 99.9342L675.876 100.123L676.248 99.2086L675.785 99.02L676.157 98.1058L676.62 98.2944L676.993 97.3802L676.53 97.1916L676.902 96.2774L677.365 96.4661L677.738 95.5519L677.275 95.3632L677.647 94.4491L678.11 94.6377L678.482 93.7235L678.019 93.5349L678.392 92.6207L678.855 92.8093L679.227 91.8951L678.764 91.7065L679.137 90.7923L679.6 90.9809L679.972 90.0667L679.509 89.8781L679.881 88.9639L680.344 89.1526L680.452 88.8872L680.724 88.7727L680.53 88.3119L681.456 87.9221L681.65 88.3829L682.575 87.9931L682.381 87.5323L683.307 87.1425L683.501 87.6033L684.426 87.2135L684.232 86.7527L685.158 86.3629L685.352 86.8237L686.277 86.4339L686.083 85.9731L687.009 85.5833L687.203 86.0441L688.128 85.6543L687.934 85.1935L688.86 84.8037L689.054 85.2645L689.979 84.8747L689.785 84.4139L690.711 84.0241L690.905 84.4848L691.83 84.095L691.636 83.6342L692.561 83.2444L692.756 83.7052L693.681 83.3154L693.487 82.8546L694.412 82.4648L694.607 82.9256L695.532 82.5358L695.338 82.075L696.263 81.6852L696.457 82.146L697.383 81.7562L697.189 81.2954L698.114 80.9056L698.308 81.3664L699.234 80.9766L699.04 80.5158L699.965 80.126L700.159 80.5868L701.085 80.197L700.891 79.7362L701.816 79.3464L702.01 79.8072L702.936 79.4174L702.742 78.9566L703.667 78.5668L703.861 79.0276L704.787 78.6378L704.593 78.177L705.518 77.7872L705.712 78.248L706.638 77.8581L706.444 77.3974L707.369 77.0075L707.563 77.4683L708.489 77.0785L708.295 76.6177L709.22 76.2279L709.414 76.6887L710.34 76.2989L710.146 75.8381L711.071 75.4483L711.265 75.9091L712.191 75.5193L711.996 75.0585L712.922 74.6687L713.116 75.1295L714.042 74.7397L713.847 74.2789L714.773 73.8891L714.967 74.3499L715.892 73.9601L715.698 73.4993L716.624 73.1095L716.818 73.5703L717.743 73.1805L717.549 72.7197L718.475 72.3299L718.669 72.7907L719.594 72.4009L719.4 71.9401L720.326 71.5503L720.52 72.0111L721.445 71.6212L721.251 71.1605L722.177 70.7706L722.371 71.2314L723.296 70.8416L723.102 70.3808L724.028 69.991L724.222 70.4518L725.147 70.062L724.953 69.6012L725.879 69.2114L726.073 69.6722L726.998 69.2824L726.804 68.8216L727.73 68.4318L727.924 68.8926L728.849 68.5028L728.655 68.042L729.581 67.6522L729.775 68.113L730.7 67.7232L730.506 67.2624L731.432 66.8726L731.626 67.3334L732.551 66.9436L732.357 66.4828L733.282 66.093L733.477 66.5538L734.402 66.164L734.208 65.7032L735.133 65.3134L735.328 65.7741L736.253 65.3843L736.059 64.9235L736.984 64.5337L737.178 64.9945L738.104 64.6047L737.91 64.1439L738.835 63.7541L739.029 64.2149L739.955 63.8251L739.761 63.3643L740.686 62.9745L740.88 63.4353L741.806 63.0455L741.612 62.5847Z" fill="url(#paint0_angular)"/>
<path d="M741.612 62.5847L742.537 62.1949L742.731 62.6557L743 62.5425L743.269 62.6557L743.463 62.1949L744.388 62.5847L744.194 63.0455L745.12 63.4353L745.314 62.9745L746.239 63.3643L746.045 63.8251L746.971 64.2149L747.165 63.7541L748.09 64.1439L747.896 64.6047L748.822 64.9945L749.016 64.5338L749.941 64.9236L749.747 65.3844L750.673 65.7742L750.867 65.3134L751.792 65.7032L751.598 66.164L752.523 66.5538L752.718 66.093L753.643 66.4828L753.449 66.9436L754.374 67.3334L754.568 66.8726L755.494 67.2624L755.3 67.7232L756.225 68.113L756.419 67.6522L757.345 68.042L757.151 68.5028L758.076 68.8926L758.27 68.4318L759.196 68.8216L759.002 69.2824L759.927 69.6722L760.121 69.2114L761.047 69.6012L760.853 70.062L761.778 70.4518L761.972 69.991L762.898 70.3808L762.704 70.8416L763.629 71.2314L763.823 70.7706L764.749 71.1605L764.555 71.6212L765.48 72.0111L765.674 71.5503L766.6 71.9401L766.406 72.4009L767.331 72.7907L767.525 72.3299L768.451 72.7197L768.257 73.1805L769.182 73.5703L769.376 73.1095L770.302 73.4993L770.108 73.9601L771.033 74.3499L771.227 73.8891L772.153 74.2789L771.958 74.7397L772.884 75.1295L773.078 74.6687L774.004 75.0585L773.809 75.5193L774.735 75.9091L774.929 75.4483L775.854 75.8381L775.66 76.2989L776.586 76.6887L776.78 76.2279L777.705 76.6177L777.511 77.0785L778.437 77.4683L778.631 77.0075L779.556 77.3974L779.362 77.8581L780.288 78.248L780.482 77.7872L781.407 78.177L781.213 78.6378L782.139 79.0276L782.333 78.5668L783.258 78.9566L783.064 79.4174L783.99 79.8072L784.184 79.3464L785.109 79.7362L784.915 80.197L785.841 80.5868L786.035 80.126L786.96 80.5158L786.766 80.9766L787.692 81.3664L787.886 80.9056L788.811 81.2954L788.617 81.7562L789.543 82.146L789.737 81.6852L790.662 82.075L790.468 82.5358L791.394 82.9256L791.588 82.4648L792.513 82.8546L792.319 83.3154L793.244 83.7052L793.439 83.2444L794.364 83.6343L794.17 84.0951L795.095 84.4849L795.29 84.0241L796.215 84.4139L796.021 84.8747L796.946 85.2645L797.14 84.8037L798.066 85.1935L797.872 85.6543L798.797 86.0441L798.991 85.5833L799.917 85.9731L799.723 86.4339L800.648 86.8237L800.842 86.3629L801.768 86.7527L801.574 87.2135L802.499 87.6033L802.693 87.1425L803.619 87.5323L803.425 87.9931L804.35 88.3829L804.544 87.9221L805.47 88.3119L805.276 88.7727L805.548 88.8872L805.656 89.1526L806.119 88.9639L806.491 89.8781L806.028 90.0668L806.4 90.9809L806.863 90.7923L807.236 91.7065L806.773 91.8951L807.145 92.8093L807.608 92.6207L807.981 93.5349L807.518 93.7235L807.89 94.6377L808.353 94.4491L808.725 95.3632L808.262 95.5519L808.635 96.4661L809.098 96.2774L809.47 97.1916L809.007 97.3802L809.38 98.2944L809.843 98.1058L810.215 99.02L809.752 99.2086L810.124 100.123L810.587 99.9342L810.96 100.848L810.497 101.037L810.869 101.951L811.332 101.763L811.705 102.677L811.242 102.865L811.614 103.78L812.077 103.591L812.449 104.505L811.986 104.694L812.359 105.608L812.822 105.419L813.194 106.333L812.731 106.522L813.104 107.436L813.567 107.248L813.939 108.162L813.476 108.351L813.848 109.265L814.311 109.076L814.684 109.99L814.221 110.179L814.593 111.093L815.056 110.904L815.429 111.819L814.965 112.007L815.338 112.921L815.801 112.733L816.173 113.647L815.71 113.836L816.083 114.75L816.546 114.561L816.918 115.475L816.455 115.664L816.827 116.578L817.29 116.39L817.663 117.304L817.2 117.492L817.572 118.407L818.035 118.218L818.408 119.132L817.945 119.321L818.317 120.235L818.78 120.046L819.152 120.961L818.689 121.149L819.062 122.063L819.525 121.875L819.897 122.789L819.434 122.978L819.807 123.892L820.27 123.703L820.642 124.617L820.179 124.806L820.551 125.72L821.014 125.531L821.387 126.446L820.924 126.634L821.296 127.548L821.759 127.36L822.132 128.274L821.669 128.463L822.041 129.377L822.504 129.188L822.876 130.102L822.413 130.291L822.786 131.205L823.249 131.017L823.621 131.931L823.158 132.119L823.531 133.034L823.994 132.845L824.366 133.759L823.903 133.948L824.275 134.862L824.738 134.673L825.111 135.588L824.648 135.776L825.02 136.69L825.483 136.502L825.856 137.416L825.392 137.605L825.765 138.519L826.228 138.33L826.6 139.244L826.137 139.433L826.51 140.347L826.973 140.158L827.345 141.073L826.882 141.261L827.254 142.175L827.717 141.987L828.09 142.901L827.627 143.09L827.999 144.004L828.462 143.815L828.835 144.729L828.372 144.918L828.744 145.832L829.207 145.644L829.579 146.558L829.116 146.746L829.489 147.661L829.952 147.472L830.324 148.386L829.861 148.575L830.234 149.489L830.697 149.3L831.069 150.215L830.606 150.403L830.978 151.317L831.441 151.129L831.814 152.043L831.351 152.232L831.46 152.5L831.351 152.768L831.814 152.957L831.441 153.871L830.978 153.683L830.606 154.597L831.069 154.785L830.697 155.7L830.234 155.511L829.861 156.425L830.324 156.614L829.952 157.528L829.489 157.339L829.116 158.254L829.579 158.442L829.207 159.356L828.744 159.168L828.372 160.082L828.835 160.271L828.462 161.185L827.999 160.996L827.627 161.91L828.09 162.099L827.717 163.013L827.254 162.825L826.882 163.739L827.345 163.927L826.973 164.842L826.51 164.653L826.137 165.567L826.6 165.756L826.228 166.67L825.765 166.481L825.392 167.395L825.856 167.584L825.483 168.498L825.02 168.31L824.648 169.224L825.111 169.412L824.738 170.327L824.275 170.138L823.903 171.052L824.366 171.241L823.994 172.155L823.531 171.966L823.158 172.881L823.621 173.069L823.249 173.983L822.786 173.795L822.413 174.709L822.876 174.898L822.504 175.812L822.041 175.623L821.669 176.537L822.132 176.726L821.759 177.64L821.296 177.452L820.924 178.366L821.387 178.554L821.014 179.469L820.551 179.28L820.179 180.194L820.642 180.383L820.27 181.297L819.807 181.108L819.434 182.022L819.897 182.211L819.525 183.125L819.062 182.937L818.689 183.851L819.152 184.039L818.78 184.954L818.317 184.765L817.945 185.679L818.408 185.868L818.035 186.782L817.572 186.593L817.2 187.508L817.663 187.696L817.29 188.61L816.827 188.422L816.455 189.336L816.918 189.525L816.546 190.439L816.083 190.25L815.71 191.164L816.173 191.353L815.801 192.267L815.338 192.079L814.965 192.993L815.429 193.181L815.056 194.096L814.593 193.907L814.221 194.821L814.684 195.01L814.311 195.924L813.848 195.735L813.476 196.649L813.939 196.838L813.567 197.752L813.104 197.564L812.731 198.478L813.194 198.667L812.822 199.581L812.359 199.392L811.986 200.306L812.449 200.495L812.077 201.409L811.614 201.22L811.242 202.135L811.705 202.323L811.332 203.237L810.869 203.049L810.497 203.963L810.96 204.152L810.587 205.066L810.124 204.877L809.752 205.791L810.215 205.98L809.843 206.894L809.38 206.706L809.007 207.62L809.47 207.808L809.098 208.723L808.635 208.534L808.262 209.448L808.725 209.637L808.353 210.551L807.89 210.362L807.518 211.277L807.981 211.465L807.608 212.379L807.145 212.191L806.773 213.105L807.236 213.294L806.863 214.208L806.4 214.019L806.028 214.933L806.491 215.122L806.119 216.036L805.656 215.847L805.548 216.113L805.276 216.227L805.47 216.688L804.544 217.078L804.35 216.617L803.425 217.007L803.619 217.468L802.693 217.857L802.499 217.397L801.574 217.787L801.768 218.247L800.842 218.637L800.648 218.176L799.723 218.566L799.917 219.027L798.991 219.417L798.797 218.956L797.872 219.346L798.066 219.807L797.14 220.196L796.946 219.736L796.021 220.125L796.215 220.586L795.289 220.976L795.095 220.515L794.17 220.905L794.364 221.366L793.439 221.756L793.244 221.295L792.319 221.685L792.513 222.145L791.588 222.535L791.393 222.074L790.468 222.464L790.662 222.925L789.737 223.315L789.543 222.854L788.617 223.244L788.811 223.705L787.886 224.094L787.692 223.634L786.766 224.023L786.96 224.484L786.035 224.874L785.841 224.413L784.915 224.803L785.109 225.264L784.184 225.654L783.99 225.193L783.064 225.583L783.258 226.043L782.333 226.433L782.139 225.972L781.213 226.362L781.407 226.823L780.482 227.213L780.288 226.752L779.362 227.142L779.556 227.603L778.631 227.992L778.437 227.532L777.511 227.921L777.705 228.382L776.78 228.772L776.586 228.311L775.66 228.701L775.854 229.162L774.929 229.552L774.735 229.091L773.809 229.481L774.004 229.941L773.078 230.331L772.884 229.87L771.958 230.26L772.153 230.721L771.227 231.111L771.033 230.65L770.108 231.04L770.302 231.501L769.376 231.891L769.182 231.43L768.257 231.82L768.451 232.28L767.525 232.67L767.331 232.209L766.406 232.599L766.6 233.06L765.674 233.45L765.48 232.989L764.555 233.379L764.749 233.84L763.823 234.229L763.629 233.769L762.704 234.158L762.898 234.619L761.972 235.009L761.778 234.548L760.853 234.938L761.047 235.399L760.121 235.789L759.927 235.328L759.002 235.718L759.196 236.178L758.27 236.568L758.076 236.107L757.151 236.497L757.345 236.958L756.419 237.348L756.225 236.887L755.3 237.277L755.494 237.738L754.568 238.127L754.374 237.667L753.449 238.056L753.643 238.517L752.718 238.907L752.523 238.446L751.598 238.836L751.792 239.297L750.867 239.687L750.672 239.226L749.747 239.616L749.941 240.076L749.016 240.466L748.822 240.005L747.896 240.395L748.09 240.856L747.165 241.246L746.971 240.785L746.045 241.175L746.239 241.636L745.314 242.025L745.12 241.565L744.194 241.954L744.388 242.415L743.463 242.805L743.269 242.344L743 242.457L742.731 242.344L742.537 242.805L741.612 242.415L741.806 241.954L740.88 241.565L740.686 242.025L739.761 241.636L739.955 241.175L739.029 240.785L738.835 241.246L737.91 240.856L738.104 240.395L737.178 240.005L736.984 240.466L736.059 240.076L736.253 239.616L735.327 239.226L735.133 239.687L734.208 239.297L734.402 238.836L733.477 238.446L733.282 238.907L732.357 238.517L732.551 238.056L731.626 237.667L731.432 238.127L730.506 237.738L730.7 237.277L729.775 236.887L729.581 237.348L728.655 236.958L728.849 236.497L727.924 236.107L727.73 236.568L726.804 236.178L726.998 235.718L726.073 235.328L725.879 235.789L724.953 235.399L725.147 234.938L724.222 234.548L724.028 235.009L723.102 234.619L723.296 234.158L722.371 233.769L722.177 234.229L721.251 233.84L721.445 233.379L720.52 232.989L720.326 233.45L719.4 233.06L719.594 232.599L718.669 232.209L718.475 232.67L717.549 232.28L717.743 231.82L716.818 231.43L716.624 231.891L715.698 231.501L715.892 231.04L714.967 230.65L714.773 231.111L713.847 230.721L714.042 230.26L713.116 229.87L712.922 230.331L711.996 229.941L712.191 229.481L711.265 229.091L711.071 229.552L710.146 229.162L710.34 228.701L709.414 228.311L709.22 228.772L708.295 228.382L708.489 227.921L707.563 227.532L707.369 227.992L706.444 227.603L706.638 227.142L705.712 226.752L705.518 227.213L704.593 226.823L704.787 226.362L703.861 225.972L703.667 226.433L702.742 226.043L702.936 225.583L702.01 225.193L701.816 225.654L700.891 225.264L701.085 224.803L700.159 224.413L699.965 224.874L699.04 224.484L699.234 224.023L698.308 223.634L698.114 224.094L697.189 223.705L697.383 223.244L696.457 222.854L696.263 223.315L695.338 222.925L695.532 222.464L694.606 222.074L694.412 222.535L693.487 222.145L693.681 221.685L692.756 221.295L692.561 221.756L691.636 221.366L691.83 220.905L690.905 220.515L690.71 220.976L689.785 220.586L689.979 220.125L689.054 219.736L688.86 220.196L687.934 219.807L688.128 219.346L687.203 218.956L687.009 219.417L686.083 219.027L686.277 218.566L685.352 218.176L685.158 218.637L684.232 218.247L684.426 217.786L683.501 217.397L683.307 217.857L682.381 217.468L682.575 217.007L681.65 216.617L681.456 217.078L680.53 216.688L680.724 216.227L680.452 216.113L680.344 215.847L679.881 216.036L679.509 215.122L679.972 214.933L679.6 214.019L679.137 214.208L678.764 213.294L679.227 213.105L678.855 212.191L678.392 212.379L678.019 211.465L678.482 211.277L678.11 210.362L677.647 210.551L677.275 209.637L677.738 209.448L677.365 208.534L676.902 208.723L676.53 207.808L676.993 207.62L676.62 206.706L676.157 206.894L675.785 205.98L676.248 205.791L675.876 204.877L675.413 205.066L675.04 204.152L675.503 203.963L675.131 203.049L674.668 203.237L674.295 202.323L674.758 202.135L674.386 201.22L673.923 201.409L673.551 200.495L674.014 200.306L673.641 199.392L673.178 199.581L672.806 198.667L673.269 198.478L672.897 197.564L672.433 197.752L672.061 196.838L672.524 196.65L672.152 195.735L671.689 195.924L671.316 195.01L671.779 194.821L671.407 193.907L670.944 194.096L670.571 193.181L671.035 192.993L670.662 192.079L670.199 192.267L669.827 191.353L670.29 191.164L669.917 190.25L669.454 190.439L669.082 189.525L669.545 189.336L669.173 188.422L668.71 188.61L668.337 187.696L668.8 187.508L668.428 186.593L667.965 186.782L667.592 185.868L668.055 185.679L667.683 184.765L667.22 184.954L666.848 184.039L667.311 183.851L666.938 182.937L666.475 183.125L666.103 182.211L666.566 182.022L666.193 181.108L665.73 181.297L665.358 180.383L665.821 180.194L665.449 179.28L664.986 179.469L664.613 178.554L665.076 178.366L664.704 177.452L664.241 177.64L663.868 176.726L664.331 176.537L663.959 175.623L663.496 175.812L663.124 174.898L663.587 174.709L663.214 173.795L662.751 173.983L662.379 173.069L662.842 172.881L662.47 171.966L662.006 172.155L661.634 171.241L662.097 171.052L661.725 170.138L661.262 170.327L660.889 169.412L661.352 169.224L660.98 168.31L660.517 168.498L660.144 167.584L660.608 167.395L660.235 166.481L659.772 166.67L659.4 165.756L659.863 165.567L659.49 164.653L659.027 164.842L658.655 163.927L659.118 163.739L658.746 162.825L658.283 163.013L657.91 162.099L658.373 161.91L658.001 160.996L657.538 161.185L657.165 160.271L657.628 160.082L657.256 159.168L656.793 159.356L656.421 158.442L656.884 158.254L656.511 157.339L656.048 157.528L655.676 156.614L656.139 156.425L655.766 155.511L655.303 155.7L654.931 154.785L655.394 154.597L655.022 153.683L654.559 153.871L654.186 152.957L654.649 152.768L654.54 152.5L654.649 152.232L654.186 152.043L654.559 151.129L655.022 151.317L655.394 150.403L654.931 150.215L655.303 149.3L655.766 149.489L656.139 148.575L655.676 148.386L656.048 147.472L656.511 147.661L656.884 146.746L656.421 146.558L656.793 145.644L657.256 145.832L657.628 144.918L657.165 144.729L657.538 143.815L658.001 144.004L658.373 143.09L657.91 142.901L658.283 141.987L658.746 142.175L659.118 141.261L658.655 141.073L659.027 140.158L659.49 140.347L659.863 139.433L659.4 139.244L659.772 138.33L660.235 138.519L660.608 137.605L660.144 137.416L660.517 136.502L660.98 136.69L661.352 135.776L660.889 135.588L661.262 134.673L661.725 134.862L662.097 133.948L661.634 133.759L662.006 132.845L662.469 133.034L662.842 132.119L662.379 131.931L662.751 131.017L663.214 131.205L663.587 130.291L663.124 130.102L663.496 129.188L663.959 129.377L664.331 128.463L663.868 128.274L664.241 127.36L664.704 127.548L665.076 126.634L664.613 126.446L664.986 125.531L665.449 125.72L665.821 124.806L665.358 124.617L665.73 123.703L666.193 123.892L666.566 122.978L666.103 122.789L666.475 121.875L666.938 122.063L667.311 121.149L666.848 120.961L667.22 120.046L667.683 120.235L668.055 119.321L667.592 119.132L667.965 118.218L668.428 118.407L668.8 117.492L668.337 117.304L668.71 116.39L669.173 116.578L669.545 115.664L669.082 115.475L669.454 114.561L669.917 114.75L670.29 113.836L669.827 113.647L670.199 112.733L670.662 112.921L671.035 112.007L670.571 111.819L670.944 110.904L671.407 111.093L671.779 110.179L671.316 109.99L671.689 109.076L672.152 109.265L672.524 108.351L672.061 108.162L672.433 107.248L672.896 107.436L673.269 106.522L672.806 106.334L673.178 105.419L673.641 105.608L674.014 104.694L673.551 104.505L673.923 103.591L674.386 103.78L674.758 102.865L674.295 102.677L674.668 101.763L675.131 101.951L675.503 101.037L675.04 100.848L675.413 99.9342L675.876 100.123L676.248 99.2086L675.785 99.02L676.157 98.1058L676.62 98.2944L676.993 97.3802L676.53 97.1916L676.902 96.2774L677.365 96.4661L677.738 95.5519L677.275 95.3632L677.647 94.4491L678.11 94.6377L678.482 93.7235L678.019 93.5349L678.392 92.6207L678.855 92.8093L679.227 91.8951L678.764 91.7065L679.137 90.7923L679.6 90.9809L679.972 90.0667L679.509 89.8781L679.881 88.9639L680.344 89.1526L680.452 88.8872L680.724 88.7727L680.53 88.3119L681.456 87.9221L681.65 88.3829L682.575 87.9931L682.381 87.5323L683.307 87.1425L683.501 87.6033L684.426 87.2135L684.232 86.7527L685.158 86.3629L685.352 86.8237L686.277 86.4339L686.083 85.9731L687.009 85.5833L687.203 86.0441L688.128 85.6543L687.934 85.1935L688.86 84.8037L689.054 85.2645L689.979 84.8747L689.785 84.4139L690.711 84.0241L690.905 84.4848L691.83 84.095L691.636 83.6342L692.561 83.2444L692.756 83.7052L693.681 83.3154L693.487 82.8546L694.412 82.4648L694.607 82.9256L695.532 82.5358L695.338 82.075L696.263 81.6852L696.457 82.146L697.383 81.7562L697.189 81.2954L698.114 80.9056L698.308 81.3664L699.234 80.9766L699.04 80.5158L699.965 80.126L700.159 80.5868L701.085 80.197L700.891 79.7362L701.816 79.3464L702.01 79.8072L702.936 79.4174L702.742 78.9566L703.667 78.5668L703.861 79.0276L704.787 78.6378L704.593 78.177L705.518 77.7872L705.712 78.248L706.638 77.8581L706.444 77.3974L707.369 77.0075L707.563 77.4683L708.489 77.0785L708.295 76.6177L709.22 76.2279L709.414 76.6887L710.34 76.2989L710.146 75.8381L711.071 75.4483L711.265 75.9091L712.191 75.5193L711.996 75.0585L712.922 74.6687L713.116 75.1295L714.042 74.7397L713.847 74.2789L714.773 73.8891L714.967 74.3499L715.892 73.9601L715.698 73.4993L716.624 73.1095L716.818 73.5703L717.743 73.1805L717.549 72.7197L718.475 72.3299L718.669 72.7907L719.594 72.4009L719.4 71.9401L720.326 71.5503L720.52 72.0111L721.445 71.6212L721.251 71.1605L722.177 70.7706L722.371 71.2314L723.296 70.8416L723.102 70.3808L724.028 69.991L724.222 70.4518L725.147 70.062L724.953 69.6012L725.879 69.2114L726.073 69.6722L726.998 69.2824L726.804 68.8216L727.73 68.4318L727.924 68.8926L728.849 68.5028L728.655 68.042L729.581 67.6522L729.775 68.113L730.7 67.7232L730.506 67.2624L731.432 66.8726L731.626 67.3334L732.551 66.9436L732.357 66.4828L733.282 66.093L733.477 66.5538L734.402 66.164L734.208 65.7032L735.133 65.3134L735.328 65.7741L736.253 65.3843L736.059 64.9235L736.984 64.5337L737.178 64.9945L738.104 64.6047L737.91 64.1439L738.835 63.7541L739.029 64.2149L739.955 63.8251L739.761 63.3643L740.686 62.9745L740.88 63.4353L741.806 63.0455L741.612 62.5847Z" fill="url(#paint1_angular)"/>
<path d="M741.612 62.5847L742.537 62.1949L742.731 62.6557L743 62.5425L743.269 62.6557L743.463 62.1949L744.388 62.5847L744.194 63.0455L745.12 63.4353L745.314 62.9745L746.239 63.3643L746.045 63.8251L746.971 64.2149L747.165 63.7541L748.09 64.1439L747.896 64.6047L748.822 64.9945L749.016 64.5338L749.941 64.9236L749.747 65.3844L750.673 65.7742L750.867 65.3134L751.792 65.7032L751.598 66.164L752.523 66.5538L752.718 66.093L753.643 66.4828L753.449 66.9436L754.374 67.3334L754.568 66.8726L755.494 67.2624L755.3 67.7232L756.225 68.113L756.419 67.6522L757.345 68.042L757.151 68.5028L758.076 68.8926L758.27 68.4318L759.196 68.8216L759.002 69.2824L759.927 69.6722L760.121 69.2114L761.047 69.6012L760.853 70.062L761.778 70.4518L761.972 69.991L762.898 70.3808L762.704 70.8416L763.629 71.2314L763.823 70.7706L764.749 71.1605L764.555 71.6212L765.48 72.0111L765.674 71.5503L766.6 71.9401L766.406 72.4009L767.331 72.7907L767.525 72.3299L768.451 72.7197L768.257 73.1805L769.182 73.5703L769.376 73.1095L770.302 73.4993L770.108 73.9601L771.033 74.3499L771.227 73.8891L772.153 74.2789L771.958 74.7397L772.884 75.1295L773.078 74.6687L774.004 75.0585L773.809 75.5193L774.735 75.9091L774.929 75.4483L775.854 75.8381L775.66 76.2989L776.586 76.6887L776.78 76.2279L777.705 76.6177L777.511 77.0785L778.437 77.4683L778.631 77.0075L779.556 77.3974L779.362 77.8581L780.288 78.248L780.482 77.7872L781.407 78.177L781.213 78.6378L782.139 79.0276L782.333 78.5668L783.258 78.9566L783.064 79.4174L783.99 79.8072L784.184 79.3464L785.109 79.7362L784.915 80.197L785.841 80.5868L786.035 80.126L786.96 80.5158L786.766 80.9766L787.692 81.3664L787.886 80.9056L788.811 81.2954L788.617 81.7562L789.543 82.146L789.737 81.6852L790.662 82.075L790.468 82.5358L791.394 82.9256L791.588 82.4648L792.513 82.8546L792.319 83.3154L793.244 83.7052L793.439 83.2444L794.364 83.6343L794.17 84.0951L795.095 84.4849L795.29 84.0241L796.215 84.4139L796.021 84.8747L796.946 85.2645L797.14 84.8037L798.066 85.1935L797.872 85.6543L798.797 86.0441L798.991 85.5833L799.917 85.9731L799.723 86.4339L800.648 86.8237L800.842 86.3629L801.768 86.7527L801.574 87.2135L802.499 87.6033L802.693 87.1425L803.619 87.5323L803.425 87.9931L804.35 88.3829L804.544 87.9221L805.47 88.3119L805.276 88.7727L805.548 88.8872L805.656 89.1526L806.119 88.9639L806.491 89.8781L806.028 90.0668L806.4 90.9809L806.863 90.7923L807.236 91.7065L806.773 91.8951L807.145 92.8093L807.608 92.6207L807.981 93.5349L807.518 93.7235L807.89 94.6377L808.353 94.4491L808.725 95.3632L808.262 95.5519L808.635 96.4661L809.098 96.2774L809.47 97.1916L809.007 97.3802L809.38 98.2944L809.843 98.1058L810.215 99.02L809.752 99.2086L810.124 100.123L810.587 99.9342L810.96 100.848L810.497 101.037L810.869 101.951L811.332 101.763L811.705 102.677L811.242 102.865L811.614 103.78L812.077 103.591L812.449 104.505L811.986 104.694L812.359 105.608L812.822 105.419L813.194 106.333L812.731 106.522L813.104 107.436L813.567 107.248L813.939 108.162L813.476 108.351L813.848 109.265L814.311 109.076L814.684 109.99L814.221 110.179L814.593 111.093L815.056 110.904L815.429 111.819L814.965 112.007L815.338 112.921L815.801 112.733L816.173 113.647L815.71 113.836L816.083 114.75L816.546 114.561L816.918 115.475L816.455 115.664L816.827 116.578L817.29 116.39L817.663 117.304L817.2 117.492L817.572 118.407L818.035 118.218L818.408 119.132L817.945 119.321L818.317 120.235L818.78 120.046L819.152 120.961L818.689 121.149L819.062 122.063L819.525 121.875L819.897 122.789L819.434 122.978L819.807 123.892L820.27 123.703L820.642 124.617L820.179 124.806L820.551 125.72L821.014 125.531L821.387 126.446L820.924 126.634L821.296 127.548L821.759 127.36L822.132 128.274L821.669 128.463L822.041 129.377L822.504 129.188L822.876 130.102L822.413 130.291L822.786 131.205L823.249 131.017L823.621 131.931L823.158 132.119L823.531 133.034L823.994 132.845L824.366 133.759L823.903 133.948L824.275 134.862L824.738 134.673L825.111 135.588L824.648 135.776L825.02 136.69L825.483 136.502L825.856 137.416L825.392 137.605L825.765 138.519L826.228 138.33L826.6 139.244L826.137 139.433L826.51 140.347L826.973 140.158L827.345 141.073L826.882 141.261L827.254 142.175L827.717 141.987L828.09 142.901L827.627 143.09L827.999 144.004L828.462 143.815L828.835 144.729L828.372 144.918L828.744 145.832L829.207 145.644L829.579 146.558L829.116 146.746L829.489 147.661L829.952 147.472L830.324 148.386L829.861 148.575L830.234 149.489L830.697 149.3L831.069 150.215L830.606 150.403L830.978 151.317L831.441 151.129L831.814 152.043L831.351 152.232L831.46 152.5L831.351 152.768L831.814 152.957L831.441 153.871L830.978 153.683L830.606 154.597L831.069 154.785L830.697 155.7L830.234 155.511L829.861 156.425L830.324 156.614L829.952 157.528L829.489 157.339L829.116 158.254L829.579 158.442L829.207 159.356L828.744 159.168L828.372 160.082L828.835 160.271L828.462 161.185L827.999 160.996L827.627 161.91L828.09 162.099L827.717 163.013L827.254 162.825L826.882 163.739L827.345 163.927L826.973 164.842L826.51 164.653L826.137 165.567L826.6 165.756L826.228 166.67L825.765 166.481L825.392 167.395L825.856 167.584L825.483 168.498L825.02 168.31L824.648 169.224L825.111 169.412L824.738 170.327L824.275 170.138L823.903 171.052L824.366 171.241L823.994 172.155L823.531 171.966L823.158 172.881L823.621 173.069L823.249 173.983L822.786 173.795L822.413 174.709L822.876 174.898L822.504 175.812L822.041 175.623L821.669 176.537L822.132 176.726L821.759 177.64L821.296 177.452L820.924 178.366L821.387 178.554L821.014 179.469L820.551 179.28L820.179 180.194L820.642 180.383L820.27 181.297L819.807 181.108L819.434 182.022L819.897 182.211L819.525 183.125L819.062 182.937L818.689 183.851L819.152 184.039L818.78 184.954L818.317 184.765L817.945 185.679L818.408 185.868L818.035 186.782L817.572 186.593L817.2 187.508L817.663 187.696L817.29 188.61L816.827 188.422L816.455 189.336L816.918 189.525L816.546 190.439L816.083 190.25L815.71 191.164L816.173 191.353L815.801 192.267L815.338 192.079L814.965 192.993L815.429 193.181L815.056 194.096L814.593 193.907L814.221 194.821L814.684 195.01L814.311 195.924L813.848 195.735L813.476 196.649L813.939 196.838L813.567 197.752L813.104 197.564L812.731 198.478L813.194 198.667L812.822 199.581L812.359 199.392L811.986 200.306L812.449 200.495L812.077 201.409L811.614 201.22L811.242 202.135L811.705 202.323L811.332 203.237L810.869 203.049L810.497 203.963L810.96 204.152L810.587 205.066L810.124 204.877L809.752 205.791L810.215 205.98L809.843 206.894L809.38 206.706L809.007 207.62L809.47 207.808L809.098 208.723L808.635 208.534L808.262 209.448L808.725 209.637L808.353 210.551L807.89 210.362L807.518 211.277L807.981 211.465L807.608 212.379L807.145 212.191L806.773 213.105L807.236 213.294L806.863 214.208L806.4 214.019L806.028 214.933L806.491 215.122L806.119 216.036L805.656 215.847L805.548 216.113L805.276 216.227L805.47 216.688L804.544 217.078L804.35 216.617L803.425 217.007L803.619 217.468L802.693 217.857L802.499 217.397L801.574 217.787L801.768 218.247L800.842 218.637L800.648 218.176L799.723 218.566L799.917 219.027L798.991 219.417L798.797 218.956L797.872 219.346L798.066 219.807L797.14 220.196L796.946 219.736L796.021 220.125L796.215 220.586L795.289 220.976L795.095 220.515L794.17 220.905L794.364 221.366L793.439 221.756L793.244 221.295L792.319 221.685L792.513 222.145L791.588 222.535L791.393 222.074L790.468 222.464L790.662 222.925L789.737 223.315L789.543 222.854L788.617 223.244L788.811 223.705L787.886 224.094L787.692 223.634L786.766 224.023L786.96 224.484L786.035 224.874L785.841 224.413L784.915 224.803L785.109 225.264L784.184 225.654L783.99 225.193L783.064 225.583L783.258 226.043L782.333 226.433L782.139 225.972L781.213 226.362L781.407 226.823L780.482 227.213L780.288 226.752L779.362 227.142L779.556 227.603L778.631 227.992L778.437 227.532L777.511 227.921L777.705 228.382L776.78 228.772L776.586 228.311L775.66 228.701L775.854 229.162L774.929 229.552L774.735 229.091L773.809 229.481L774.004 229.941L773.078 230.331L772.884 229.87L771.958 230.26L772.153 230.721L771.227 231.111L771.033 230.65L770.108 231.04L770.302 231.501L769.376 231.891L769.182 231.43L768.257 231.82L768.451 232.28L767.525 232.67L767.331 232.209L766.406 232.599L766.6 233.06L765.674 233.45L765.48 232.989L764.555 233.379L764.749 233.84L763.823 234.229L763.629 233.769L762.704 234.158L762.898 234.619L761.972 235.009L761.778 234.548L760.853 234.938L761.047 235.399L760.121 235.789L759.927 235.328L759.002 235.718L759.196 236.178L758.27 236.568L758.076 236.107L757.151 236.497L757.345 236.958L756.419 237.348L756.225 236.887L755.3 237.277L755.494 237.738L754.568 238.127L754.374 237.667L753.449 238.056L753.643 238.517L752.718 238.907L752.523 238.446L751.598 238.836L751.792 239.297L750.867 239.687L750.672 239.226L749.747 239.616L749.941 240.076L749.016 240.466L748.822 240.005L747.896 240.395L748.09 240.856L747.165 241.246L746.971 240.785L746.045 241.175L746.239 241.636L745.314 242.025L745.12 241.565L744.194 241.954L744.388 242.415L743.463 242.805L743.269 242.344L743 242.457L742.731 242.344L742.537 242.805L741.612 242.415L741.806 241.954L740.88 241.565L740.686 242.025L739.761 241.636L739.955 241.175L739.029 240.785L738.835 241.246L737.91 240.856L738.104 240.395L737.178 240.005L736.984 240.466L736.059 240.076L736.253 239.616L735.327 239.226L735.133 239.687L734.208 239.297L734.402 238.836L733.477 238.446L733.282 238.907L732.357 238.517L732.551 238.056L731.626 237.667L731.432 238.127L730.506 237.738L730.7 237.277L729.775 236.887L729.581 237.348L728.655 236.958L728.849 236.497L727.924 236.107L727.73 236.568L726.804 236.178L726.998 235.718L726.073 235.328L725.879 235.789L724.953 235.399L725.147 234.938L724.222 234.548L724.028 235.009L723.102 234.619L723.296 234.158L722.371 233.769L722.177 234.229L721.251 233.84L721.445 233.379L720.52 232.989L720.326 233.45L719.4 233.06L719.594 232.599L718.669 232.209L718.475 232.67L717.549 232.28L717.743 231.82L716.818 231.43L716.624 231.891L715.698 231.501L715.892 231.04L714.967 230.65L714.773 231.111L713.847 230.721L714.042 230.26L713.116 229.87L712.922 230.331L711.996 229.941L712.191 229.481L711.265 229.091L711.071 229.552L710.146 229.162L710.34 228.701L709.414 228.311L709.22 228.772L708.295 228.382L708.489 227.921L707.563 227.532L707.369 227.992L706.444 227.603L706.638 227.142L705.712 226.752L705.518 227.213L704.593 226.823L704.787 226.362L703.861 225.972L703.667 226.433L702.742 226.043L702.936 225.583L702.01 225.193L701.816 225.654L700.891 225.264L701.085 224.803L700.159 224.413L699.965 224.874L699.04 224.484L699.234 224.023L698.308 223.634L698.114 224.094L697.189 223.705L697.383 223.244L696.457 222.854L696.263 223.315L695.338 222.925L695.532 222.464L694.606 222.074L694.412 222.535L693.487 222.145L693.681 221.685L692.756 221.295L692.561 221.756L691.636 221.366L691.83 220.905L690.905 220.515L690.71 220.976L689.785 220.586L689.979 220.125L689.054 219.736L688.86 220.196L687.934 219.807L688.128 219.346L687.203 218.956L687.009 219.417L686.083 219.027L686.277 218.566L685.352 218.176L685.158 218.637L684.232 218.247L684.426 217.786L683.501 217.397L683.307 217.857L682.381 217.468L682.575 217.007L681.65 216.617L681.456 217.078L680.53 216.688L680.724 216.227L680.452 216.113L680.344 215.847L679.881 216.036L679.509 215.122L679.972 214.933L679.6 214.019L679.137 214.208L678.764 213.294L679.227 213.105L678.855 212.191L678.392 212.379L678.019 211.465L678.482 211.277L678.11 210.362L677.647 210.551L677.275 209.637L677.738 209.448L677.365 208.534L676.902 208.723L676.53 207.808L676.993 207.62L676.62 206.706L676.157 206.894L675.785 205.98L676.248 205.791L675.876 204.877L675.413 205.066L675.04 204.152L675.503 203.963L675.131 203.049L674.668 203.237L674.295 202.323L674.758 202.135L674.386 201.22L673.923 201.409L673.551 200.495L674.014 200.306L673.641 199.392L673.178 199.581L672.806 198.667L673.269 198.478L672.897 197.564L672.433 197.752L672.061 196.838L672.524 196.65L672.152 195.735L671.689 195.924L671.316 195.01L671.779 194.821L671.407 193.907L670.944 194.096L670.571 193.181L671.035 192.993L670.662 192.079L670.199 192.267L669.827 191.353L670.29 191.164L669.917 190.25L669.454 190.439L669.082 189.525L669.545 189.336L669.173 188.422L668.71 188.61L668.337 187.696L668.8 187.508L668.428 186.593L667.965 186.782L667.592 185.868L668.055 185.679L667.683 184.765L667.22 184.954L666.848 184.039L667.311 183.851L666.938 182.937L666.475 183.125L666.103 182.211L666.566 182.022L666.193 181.108L665.73 181.297L665.358 180.383L665.821 180.194L665.449 179.28L664.986 179.469L664.613 178.554L665.076 178.366L664.704 177.452L664.241 177.64L663.868 176.726L664.331 176.537L663.959 175.623L663.496 175.812L663.124 174.898L663.587 174.709L663.214 173.795L662.751 173.983L662.379 173.069L662.842 172.881L662.47 171.966L662.006 172.155L661.634 171.241L662.097 171.052L661.725 170.138L661.262 170.327L660.889 169.412L661.352 169.224L660.98 168.31L660.517 168.498L660.144 167.584L660.608 167.395L660.235 166.481L659.772 166.67L659.4 165.756L659.863 165.567L659.49 164.653L659.027 164.842L658.655 163.927L659.118 163.739L658.746 162.825L658.283 163.013L657.91 162.099L658.373 161.91L658.001 160.996L657.538 161.185L657.165 160.271L657.628 160.082L657.256 159.168L656.793 159.356L656.421 158.442L656.884 158.254L656.511 157.339L656.048 157.528L655.676 156.614L656.139 156.425L655.766 155.511L655.303 155.7L654.931 154.785L655.394 154.597L655.022 153.683L654.559 153.871L654.186 152.957L654.649 152.768L654.54 152.5L654.649 152.232L654.186 152.043L654.559 151.129L655.022 151.317L655.394 150.403L654.931 150.215L655.303 149.3L655.766 149.489L656.139 148.575L655.676 148.386L656.048 147.472L656.511 147.661L656.884 146.746L656.421 146.558L656.793 145.644L657.256 145.832L657.628 144.918L657.165 144.729L657.538 143.815L658.001 144.004L658.373 143.09L657.91 142.901L658.283 141.987L658.746 142.175L659.118 141.261L658.655 141.073L659.027 140.158L659.49 140.347L659.863 139.433L659.4 139.244L659.772 138.33L660.235 138.519L660.608 137.605L660.144 137.416L660.517 136.502L660.98 136.69L661.352 135.776L660.889 135.588L661.262 134.673L661.725 134.862L662.097 133.948L661.634 133.759L662.006 132.845L662.469 133.034L662.842 132.119L662.379 131.931L662.751 131.017L663.214 131.205L663.587 130.291L663.124 130.102L663.496 129.188L663.959 129.377L664.331 128.463L663.868 128.274L664.241 127.36L664.704 127.548L665.076 126.634L664.613 126.446L664.986 125.531L665.449 125.72L665.821 124.806L665.358 124.617L665.73 123.703L666.193 123.892L666.566 122.978L666.103 122.789L666.475 121.875L666.938 122.063L667.311 121.149L666.848 120.961L667.22 120.046L667.683 120.235L668.055 119.321L667.592 119.132L667.965 118.218L668.428 118.407L668.8 117.492L668.337 117.304L668.71 116.39L669.173 116.578L669.545 115.664L669.082 115.475L669.454 114.561L669.917 114.75L670.29 113.836L669.827 113.647L670.199 112.733L670.662 112.921L671.035 112.007L670.571 111.819L670.944 110.904L671.407 111.093L671.779 110.179L671.316 109.99L671.689 109.076L672.152 109.265L672.524 108.351L672.061 108.162L672.433 107.248L672.896 107.436L673.269 106.522L672.806 106.334L673.178 105.419L673.641 105.608L674.014 104.694L673.551 104.505L673.923 103.591L674.386 103.78L674.758 102.865L674.295 102.677L674.668 101.763L675.131 101.951L675.503 101.037L675.04 100.848L675.413 99.9342L675.876 100.123L676.248 99.2086L675.785 99.02L676.157 98.1058L676.62 98.2944L676.993 97.3802L676.53 97.1916L676.902 96.2774L677.365 96.4661L677.738 95.5519L677.275 95.3632L677.647 94.4491L678.11 94.6377L678.482 93.7235L678.019 93.5349L678.392 92.6207L678.855 92.8093L679.227 91.8951L678.764 91.7065L679.137 90.7923L679.6 90.9809L679.972 90.0667L679.509 89.8781L679.881 88.9639L680.344 89.1526L680.452 88.8872L680.724 88.7727L680.53 88.3119L681.456 87.9221L681.65 88.3829L682.575 87.9931L682.381 87.5323L683.307 87.1425L683.501 87.6033L684.426 87.2135L684.232 86.7527L685.158 86.3629L685.352 86.8237L686.277 86.4339L686.083 85.9731L687.009 85.5833L687.203 86.0441L688.128 85.6543L687.934 85.1935L688.86 84.8037L689.054 85.2645L689.979 84.8747L689.785 84.4139L690.711 84.0241L690.905 84.4848L691.83 84.095L691.636 83.6342L692.561 83.2444L692.756 83.7052L693.681 83.3154L693.487 82.8546L694.412 82.4648L694.607 82.9256L695.532 82.5358L695.338 82.075L696.263 81.6852L696.457 82.146L697.383 81.7562L697.189 81.2954L698.114 80.9056L698.308 81.3664L699.234 80.9766L699.04 80.5158L699.965 80.126L700.159 80.5868L701.085 80.197L700.891 79.7362L701.816 79.3464L702.01 79.8072L702.936 79.4174L702.742 78.9566L703.667 78.5668L703.861 79.0276L704.787 78.6378L704.593 78.177L705.518 77.7872L705.712 78.248L706.638 77.8581L706.444 77.3974L707.369 77.0075L707.563 77.4683L708.489 77.0785L708.295 76.6177L709.22 76.2279L709.414 76.6887L710.34 76.2989L710.146 75.8381L711.071 75.4483L711.265 75.9091L712.191 75.5193L711.996 75.0585L712.922 74.6687L713.116 75.1295L714.042 74.7397L713.847 74.2789L714.773 73.8891L714.967 74.3499L715.892 73.9601L715.698 73.4993L716.624 73.1095L716.818 73.5703L717.743 73.1805L717.549 72.7197L718.475 72.3299L718.669 72.7907L719.594 72.4009L719.4 71.9401L720.326 71.5503L720.52 72.0111L721.445 71.6212L721.251 71.1605L722.177 70.7706L722.371 71.2314L723.296 70.8416L723.102 70.3808L724.028 69.991L724.222 70.4518L725.147 70.062L724.953 69.6012L725.879 69.2114L726.073 69.6722L726.998 69.2824L726.804 68.8216L727.73 68.4318L727.924 68.8926L728.849 68.5028L728.655 68.042L729.581 67.6522L729.775 68.113L730.7 67.7232L730.506 67.2624L731.432 66.8726L731.626 67.3334L732.551 66.9436L732.357 66.4828L733.282 66.093L733.477 66.5538L734.402 66.164L734.208 65.7032L735.133 65.3134L735.328 65.7741L736.253 65.3843L736.059 64.9235L736.984 64.5337L737.178 64.9945L738.104 64.6047L737.91 64.1439L738.835 63.7541L739.029 64.2149L739.955 63.8251L739.761 63.3643L740.686 62.9745L740.88 63.4353L741.806 63.0455L741.612 62.5847Z" stroke="black" stroke-dasharray="1 1"/>
<path d="M805.5 89L680.5 216" stroke="black"/>
<path d="M743 62.5V242.5" stroke="black"/>
<path d="M680.5 89L805.5 216" stroke="black"/>
<path d="M654 152.5H831.5" stroke="black" stroke-dasharray="1 1"/>
<path d="M680.5 89.05L743 62.55L805 88.65" stroke="black"/>
<path d="M806 216L743 242.5L681 216.5" stroke="black"/>
<circle cx="743" cy="63" r="2.75" fill="white" stroke="black" stroke-width="0.5"/>
<circle cx="743" cy="152" r="2.75" fill="white" stroke="black" stroke-width="0.5"/>
<circle cx="681" cy="89" r="2.75" fill="white" stroke="black" stroke-width="0.5"/>
<circle cx="680" cy="216" r="2.75" fill="white" stroke="black" stroke-width="0.5"/>
<circle cx="654" cy="152" r="2.75" fill="white" stroke="black" stroke-width="0.5"/>
<circle cx="805" cy="89" r="2.75" fill="white" stroke="black" stroke-width="0.5"/>
<circle cx="831" cy="152" r="2.75" fill="white" stroke="black" stroke-width="0.5"/>
<circle cx="805" cy="216" r="2.75" fill="white" stroke="black" stroke-width="0.5"/>
<circle cx="743" cy="242" r="2.75" fill="white" stroke="black" stroke-width="0.5"/>
<path d="M327.612 62.5847L328.537 62.1949L328.731 62.6557L329 62.5425L329.269 62.6557L329.463 62.1949L330.388 62.5847L330.194 63.0455L331.12 63.4353L331.314 62.9745L332.239 63.3643L332.045 63.8251L332.971 64.2149L333.165 63.7541L334.09 64.1439L333.896 64.6047L334.822 64.9945L335.016 64.5338L335.941 64.9236L335.747 65.3844L336.673 65.7742L336.867 65.3134L337.792 65.7032L337.598 66.164L338.523 66.5538L338.718 66.093L339.643 66.4828L339.449 66.9436L340.374 67.3334L340.568 66.8726L341.494 67.2624L341.3 67.7232L342.225 68.113L342.419 67.6522L343.345 68.042L343.151 68.5028L344.076 68.8926L344.27 68.4318L345.196 68.8216L345.002 69.2824L345.927 69.6722L346.121 69.2114L347.047 69.6012L346.853 70.062L347.778 70.4518L347.972 69.991L348.898 70.3808L348.704 70.8416L349.629 71.2314L349.823 70.7706L350.749 71.1605L350.555 71.6212L351.48 72.0111L351.674 71.5503L352.6 71.9401L352.406 72.4009L353.331 72.7907L353.525 72.3299L354.451 72.7197L354.257 73.1805L355.182 73.5703L355.376 73.1095L356.302 73.4993L356.108 73.9601L357.033 74.3499L357.227 73.8891L358.153 74.2789L357.958 74.7397L358.884 75.1295L359.078 74.6687L360.004 75.0585L359.809 75.5193L360.735 75.9091L360.929 75.4483L361.854 75.8381L361.66 76.2989L362.586 76.6887L362.78 76.2279L363.705 76.6177L363.511 77.0785L364.437 77.4683L364.631 77.0075L365.556 77.3974L365.362 77.8581L366.288 78.248L366.482 77.7872L367.407 78.177L367.213 78.6378L368.139 79.0276L368.333 78.5668L369.258 78.9566L369.064 79.4174L369.99 79.8072L370.184 79.3464L371.109 79.7362L370.915 80.197L371.841 80.5868L372.035 80.126L372.96 80.5158L372.766 80.9766L373.692 81.3664L373.886 80.9056L374.811 81.2954L374.617 81.7562L375.543 82.146L375.737 81.6852L376.662 82.075L376.468 82.5358L377.394 82.9256L377.588 82.4648L378.513 82.8546L378.319 83.3154L379.244 83.7052L379.439 83.2444L380.364 83.6343L380.17 84.0951L381.095 84.4849L381.29 84.0241L382.215 84.4139L382.021 84.8747L382.946 85.2645L383.14 84.8037L384.066 85.1935L383.872 85.6543L384.797 86.0441L384.991 85.5833L385.917 85.9731L385.723 86.4339L386.648 86.8237L386.842 86.3629L387.768 86.7527L387.574 87.2135L388.499 87.6033L388.693 87.1425L389.619 87.5323L389.425 87.9931L390.35 88.3829L390.544 87.9221L391.47 88.3119L391.276 88.7727L391.548 88.8872L391.656 89.1526L392.119 88.9639L392.491 89.8781L392.028 90.0668L392.4 90.9809L392.863 90.7923L393.236 91.7065L392.773 91.8951L393.145 92.8093L393.608 92.6207L393.981 93.5349L393.518 93.7235L393.89 94.6377L394.353 94.4491L394.725 95.3632L394.262 95.5519L394.635 96.4661L395.098 96.2774L395.47 97.1916L395.007 97.3802L395.38 98.2944L395.843 98.1058L396.215 99.02L395.752 99.2086L396.124 100.123L396.587 99.9342L396.96 100.848L396.497 101.037L396.869 101.951L397.332 101.763L397.705 102.677L397.242 102.865L397.614 103.78L398.077 103.591L398.449 104.505L397.986 104.694L398.359 105.608L398.822 105.419L399.194 106.333L398.731 106.522L399.104 107.436L399.567 107.248L399.939 108.162L399.476 108.351L399.848 109.265L400.311 109.076L400.684 109.99L400.221 110.179L400.593 111.093L401.056 110.904L401.429 111.819L400.965 112.007L401.338 112.921L401.801 112.733L402.173 113.647L401.71 113.836L402.083 114.75L402.546 114.561L402.918 115.475L402.455 115.664L402.827 116.578L403.29 116.39L403.663 117.304L403.2 117.492L403.572 118.407L404.035 118.218L404.408 119.132L403.945 119.321L404.317 120.235L404.78 120.046L405.152 120.961L404.689 121.149L405.062 122.063L405.525 121.875L405.897 122.789L405.434 122.978L405.807 123.892L406.27 123.703L406.642 124.617L406.179 124.806L406.551 125.72L407.014 125.531L407.387 126.446L406.924 126.634L407.296 127.548L407.759 127.36L408.132 128.274L407.669 128.463L408.041 129.377L408.504 129.188L408.876 130.102L408.413 130.291L408.786 131.205L409.249 131.017L409.621 131.931L409.158 132.119L409.531 133.034L409.994 132.845L410.366 133.759L409.903 133.948L410.275 134.862L410.738 134.673L411.111 135.588L410.648 135.776L411.02 136.69L411.483 136.502L411.856 137.416L411.392 137.605L411.765 138.519L412.228 138.33L412.6 139.244L412.137 139.433L412.51 140.347L412.973 140.158L413.345 141.073L412.882 141.261L413.254 142.175L413.717 141.987L414.09 142.901L413.627 143.09L413.999 144.004L414.462 143.815L414.835 144.729L414.372 144.918L414.744 145.832L415.207 145.644L415.579 146.558L415.116 146.746L415.489 147.661L415.952 147.472L416.324 148.386L415.861 148.575L416.234 149.489L416.697 149.3L417.069 150.215L416.606 150.403L416.978 151.317L417.441 151.129L417.814 152.043L417.351 152.232L417.46 152.5L417.351 152.768L417.814 152.957L417.441 153.871L416.978 153.683L416.606 154.597L417.069 154.785L416.697 155.7L416.234 155.511L415.861 156.425L416.324 156.614L415.952 157.528L415.489 157.339L415.116 158.254L415.579 158.442L415.207 159.356L414.744 159.168L414.372 160.082L414.835 160.271L414.462 161.185L413.999 160.996L413.627 161.91L414.09 162.099L413.717 163.013L413.254 162.825L412.882 163.739L413.345 163.927L412.973 164.842L412.51 164.653L412.137 165.567L412.6 165.756L412.228 166.67L411.765 166.481L411.392 167.395L411.856 167.584L411.483 168.498L411.02 168.31L410.648 169.224L411.111 169.412L410.738 170.327L410.275 170.138L409.903 171.052L410.366 171.241L409.994 172.155L409.531 171.966L409.158 172.881L409.621 173.069L409.249 173.983L408.786 173.795L408.413 174.709L408.876 174.898L408.504 175.812L408.041 175.623L407.669 176.537L408.132 176.726L407.759 177.64L407.296 177.452L406.924 178.366L407.387 178.554L407.014 179.469L406.551 179.28L406.179 180.194L406.642 180.383L406.27 181.297L405.807 181.108L405.434 182.022L405.897 182.211L405.525 183.125L405.062 182.937L404.689 183.851L405.152 184.039L404.78 184.954L404.317 184.765L403.945 185.679L404.408 185.868L404.035 186.782L403.572 186.593L403.2 187.508L403.663 187.696L403.29 188.61L402.827 188.422L402.455 189.336L402.918 189.525L402.546 190.439L402.083 190.25L401.71 191.164L402.173 191.353L401.801 192.267L401.338 192.079L400.965 192.993L401.429 193.181L401.056 194.096L400.593 193.907L400.221 194.821L400.684 195.01L400.311 195.924L399.848 195.735L399.476 196.649L399.939 196.838L399.567 197.752L399.104 197.564L398.731 198.478L399.194 198.667L398.822 199.581L398.359 199.392L397.986 200.306L398.449 200.495L398.077 201.409L397.614 201.22L397.242 202.135L397.705 202.323L397.332 203.237L396.869 203.049L396.497 203.963L396.96 204.152L396.587 205.066L396.124 204.877L395.752 205.791L396.215 205.98L395.843 206.894L395.38 206.706L395.007 207.62L395.47 207.808L395.098 208.723L394.635 208.534L394.262 209.448L394.725 209.637L394.353 210.551L393.89 210.362L393.518 211.277L393.981 211.465L393.608 212.379L393.145 212.191L392.773 213.105L393.236 213.294L392.863 214.208L392.4 214.019L392.028 214.933L392.491 215.122L392.119 216.036L391.656 215.847L391.548 216.113L391.276 216.227L391.47 216.688L390.544 217.078L390.35 216.617L389.425 217.007L389.619 217.468L388.693 217.857L388.499 217.397L387.574 217.787L387.768 218.247L386.842 218.637L386.648 218.176L385.723 218.566L385.917 219.027L384.991 219.417L384.797 218.956L383.872 219.346L384.066 219.807L383.14 220.196L382.946 219.736L382.021 220.125L382.215 220.586L381.289 220.976L381.095 220.515L380.17 220.905L380.364 221.366L379.439 221.756L379.244 221.295L378.319 221.685L378.513 222.145L377.588 222.535L377.393 222.074L376.468 222.464L376.662 222.925L375.737 223.315L375.543 222.854L374.617 223.244L374.811 223.705L373.886 224.094L373.692 223.634L372.766 224.023L372.96 224.484L372.035 224.874L371.841 224.413L370.915 224.803L371.109 225.264L370.184 225.654L369.99 225.193L369.064 225.583L369.258 226.043L368.333 226.433L368.139 225.972L367.213 226.362L367.407 226.823L366.482 227.213L366.288 226.752L365.362 227.142L365.556 227.603L364.631 227.992L364.437 227.532L363.511 227.921L363.705 228.382L362.78 228.772L362.586 228.311L361.66 228.701L361.854 229.162L360.929 229.552L360.735 229.091L359.809 229.481L360.004 229.941L359.078 230.331L358.884 229.87L357.958 230.26L358.153 230.721L357.227 231.111L357.033 230.65L356.108 231.04L356.302 231.501L355.376 231.891L355.182 231.43L354.257 231.82L354.451 232.28L353.525 232.67L353.331 232.209L352.406 232.599L352.6 233.06L351.674 233.45L351.48 232.989L350.555 233.379L350.749 233.84L349.823 234.229L349.629 233.769L348.704 234.158L348.898 234.619L347.972 235.009L347.778 234.548L346.853 234.938L347.047 235.399L346.121 235.789L345.927 235.328L345.002 235.718L345.196 236.178L344.27 236.568L344.076 236.107L343.151 236.497L343.345 236.958L342.419 237.348L342.225 236.887L341.3 237.277L341.494 237.738L340.568 238.127L340.374 237.667L339.449 238.056L339.643 238.517L338.718 238.907L338.523 238.446L337.598 238.836L337.792 239.297L336.867 239.687L336.672 239.226L335.747 239.616L335.941 240.076L335.016 240.466L334.822 240.005L333.896 240.395L334.09 240.856L333.165 241.246L332.971 240.785L332.045 241.175L332.239 241.636L331.314 242.025L331.12 241.565L330.194 241.954L330.388 242.415L329.463 242.805L329.269 242.344L329 242.457L328.731 242.344L328.537 242.805L327.612 242.415L327.806 241.954L326.88 241.565L326.686 242.025L325.761 241.636L325.955 241.175L325.029 240.785L324.835 241.246L323.91 240.856L324.104 240.395L323.178 240.005L322.984 240.466L322.059 240.076L322.253 239.616L321.327 239.226L321.133 239.687L320.208 239.297L320.402 238.836L319.477 238.446L319.282 238.907L318.357 238.517L318.551 238.056L317.626 237.667L317.432 238.127L316.506 237.738L316.7 237.277L315.775 236.887L315.581 237.348L314.655 236.958L314.849 236.497L313.924 236.107L313.73 236.568L312.804 236.178L312.998 235.718L312.073 235.328L311.879 235.789L310.953 235.399L311.147 234.938L310.222 234.548L310.028 235.009L309.102 234.619L309.296 234.158L308.371 233.769L308.177 234.229L307.251 233.84L307.445 233.379L306.52 232.989L306.326 233.45L305.4 233.06L305.594 232.599L304.669 232.209L304.475 232.67L303.549 232.28L303.743 231.82L302.818 231.43L302.624 231.891L301.698 231.501L301.892 231.04L300.967 230.65L300.773 231.111L299.847 230.721L300.042 230.26L299.116 229.87L298.922 230.331L297.996 229.941L298.191 229.481L297.265 229.091L297.071 229.552L296.146 229.162L296.34 228.701L295.414 228.311L295.22 228.772L294.295 228.382L294.489 227.921L293.563 227.532L293.369 227.992L292.444 227.603L292.638 227.142L291.712 226.752L291.518 227.213L290.593 226.823L290.787 226.362L289.861 225.972L289.667 226.433L288.742 226.043L288.936 225.583L288.01 225.193L287.816 225.654L286.891 225.264L287.085 224.803L286.159 224.413L285.965 224.874L285.04 224.484L285.234 224.023L284.308 223.634L284.114 224.094L283.189 223.705L283.383 223.244L282.457 222.854L282.263 223.315L281.338 222.925L281.532 222.464L280.606 222.074L280.412 222.535L279.487 222.145L279.681 221.685L278.756 221.295L278.561 221.756L277.636 221.366L277.83 220.905L276.905 220.515L276.71 220.976L275.785 220.586L275.979 220.125L275.054 219.736L274.86 220.196L273.934 219.807L274.128 219.346L273.203 218.956L273.009 219.417L272.083 219.027L272.277 218.566L271.352 218.176L271.158 218.637L270.232 218.247L270.426 217.786L269.501 217.397L269.307 217.857L268.381 217.468L268.575 217.007L267.65 216.617L267.456 217.078L266.53 216.688L266.724 216.227L266.452 216.113L266.344 215.847L265.881 216.036L265.509 215.122L265.972 214.933L265.6 214.019L265.137 214.208L264.764 213.294L265.227 213.105L264.855 212.191L264.392 212.379L264.019 211.465L264.482 211.277L264.11 210.362L263.647 210.551L263.275 209.637L263.738 209.448L263.365 208.534L262.902 208.723L262.53 207.808L262.993 207.62L262.62 206.706L262.157 206.894L261.785 205.98L262.248 205.791L261.876 204.877L261.413 205.066L261.04 204.152L261.503 203.963L261.131 203.049L260.668 203.237L260.295 202.323L260.758 202.135L260.386 201.22L259.923 201.409L259.551 200.495L260.014 200.306L259.641 199.392L259.178 199.581L258.806 198.667L259.269 198.478L258.897 197.564L258.433 197.752L258.061 196.838L258.524 196.65L258.152 195.735L257.689 195.924L257.316 195.01L257.779 194.821L257.407 193.907L256.944 194.096L256.571 193.181L257.035 192.993L256.662 192.079L256.199 192.267L255.827 191.353L256.29 191.164L255.917 190.25L255.454 190.439L255.082 189.525L255.545 189.336L255.173 188.422L254.71 188.61L254.337 187.696L254.8 187.508L254.428 186.593L253.965 186.782L253.592 185.868L254.055 185.679L253.683 184.765L253.22 184.954L252.848 184.039L253.311 183.851L252.938 182.937L252.475 183.125L252.103 182.211L252.566 182.022L252.193 181.108L251.73 181.297L251.358 180.383L251.821 180.194L251.449 179.28L250.986 179.469L250.613 178.554L251.076 178.366L250.704 177.452L250.241 177.64L249.868 176.726L250.331 176.537L249.959 175.623L249.496 175.812L249.124 174.898L249.587 174.709L249.214 173.795L248.751 173.983L248.379 173.069L248.842 172.881L248.47 171.966L248.006 172.155L247.634 171.241L248.097 171.052L247.725 170.138L247.262 170.327L246.889 169.412L247.352 169.224L246.98 168.31L246.517 168.498L246.144 167.584L246.608 167.395L246.235 166.481L245.772 166.67L245.4 165.756L245.863 165.567L245.49 164.653L245.027 164.842L244.655 163.927L245.118 163.739L244.746 162.825L244.283 163.013L243.91 162.099L244.373 161.91L244.001 160.996L243.538 161.185L243.165 160.271L243.628 160.082L243.256 159.168L242.793 159.356L242.421 158.442L242.884 158.254L242.511 157.339L242.048 157.528L241.676 156.614L242.139 156.425L241.766 155.511L241.303 155.7L240.931 154.785L241.394 154.597L241.022 153.683L240.559 153.871L240.186 152.957L240.649 152.768L240.54 152.5L240.649 152.232L240.186 152.043L240.559 151.129L241.022 151.317L241.394 150.403L240.931 150.215L241.303 149.3L241.766 149.489L242.139 148.575L241.676 148.386L242.048 147.472L242.511 147.661L242.884 146.746L242.421 146.558L242.793 145.644L243.256 145.832L243.628 144.918L243.165 144.729L243.538 143.815L244.001 144.004L244.373 143.09L243.91 142.901L244.283 141.987L244.746 142.175L245.118 141.261L244.655 141.073L245.027 140.158L245.49 140.347L245.863 139.433L245.4 139.244L245.772 138.33L246.235 138.519L246.608 137.605L246.144 137.416L246.517 136.502L246.98 136.69L247.352 135.776L246.889 135.588L247.262 134.673L247.725 134.862L248.097 133.948L247.634 133.759L248.006 132.845L248.469 133.034L248.842 132.119L248.379 131.931L248.751 131.017L249.214 131.205L249.587 130.291L249.124 130.102L249.496 129.188L249.959 129.377L250.331 128.463L249.868 128.274L250.241 127.36L250.704 127.548L251.076 126.634L250.613 126.446L250.986 125.531L251.449 125.72L251.821 124.806L251.358 124.617L251.73 123.703L252.193 123.892L252.566 122.978L252.103 122.789L252.475 121.875L252.938 122.063L253.311 121.149L252.848 120.961L253.22 120.046L253.683 120.235L254.055 119.321L253.592 119.132L253.965 118.218L254.428 118.407L254.8 117.492L254.337 117.304L254.71 116.39L255.173 116.578L255.545 115.664L255.082 115.475L255.454 114.561L255.917 114.75L256.29 113.836L255.827 113.647L256.199 112.733L256.662 112.921L257.035 112.007L256.571 111.819L256.944 110.904L257.407 111.093L257.779 110.179L257.316 109.99L257.689 109.076L258.152 109.265L258.524 108.351L258.061 108.162L258.433 107.248L258.896 107.436L259.269 106.522L258.806 106.334L259.178 105.419L259.641 105.608L260.014 104.694L259.551 104.505L259.923 103.591L260.386 103.78L260.758 102.865L260.295 102.677L260.668 101.763L261.131 101.951L261.503 101.037L261.04 100.848L261.413 99.9342L261.876 100.123L262.248 99.2086L261.785 99.02L262.157 98.1058L262.62 98.2944L262.993 97.3802L262.53 97.1916L262.902 96.2774L263.365 96.4661L263.738 95.5519L263.275 95.3632L263.647 94.4491L264.11 94.6377L264.482 93.7235L264.019 93.5349L264.392 92.6207L264.855 92.8093L265.227 91.8951L264.764 91.7065L265.137 90.7923L265.6 90.9809L265.972 90.0667L265.509 89.8781L265.881 88.9639L266.344 89.1526L266.452 88.8872L266.724 88.7727L266.53 88.3119L267.456 87.9221L267.65 88.3829L268.575 87.9931L268.381 87.5323L269.307 87.1425L269.501 87.6033L270.426 87.2135L270.232 86.7527L271.158 86.3629L271.352 86.8237L272.277 86.4339L272.083 85.9731L273.009 85.5833L273.203 86.0441L274.128 85.6543L273.934 85.1935L274.86 84.8037L275.054 85.2645L275.979 84.8747L275.785 84.4139L276.711 84.0241L276.905 84.4848L277.83 84.095L277.636 83.6342L278.561 83.2444L278.756 83.7052L279.681 83.3154L279.487 82.8546L280.412 82.4648L280.607 82.9256L281.532 82.5358L281.338 82.075L282.263 81.6852L282.457 82.146L283.383 81.7562L283.189 81.2954L284.114 80.9056L284.308 81.3664L285.234 80.9766L285.04 80.5158L285.965 80.126L286.159 80.5868L287.085 80.197L286.891 79.7362L287.816 79.3464L288.01 79.8072L288.936 79.4174L288.742 78.9566L289.667 78.5668L289.861 79.0276L290.787 78.6378L290.593 78.177L291.518 77.7872L291.712 78.248L292.638 77.8581L292.444 77.3974L293.369 77.0075L293.563 77.4683L294.489 77.0785L294.295 76.6177L295.22 76.2279L295.414 76.6887L296.34 76.2989L296.146 75.8381L297.071 75.4483L297.265 75.9091L298.191 75.5193L297.996 75.0585L298.922 74.6687L299.116 75.1295L300.042 74.7397L299.847 74.2789L300.773 73.8891L300.967 74.3499L301.892 73.9601L301.698 73.4993L302.624 73.1095L302.818 73.5703L303.743 73.1805L303.549 72.7197L304.475 72.3299L304.669 72.7907L305.594 72.4009L305.4 71.9401L306.326 71.5503L306.52 72.0111L307.445 71.6212L307.251 71.1605L308.177 70.7706L308.371 71.2314L309.296 70.8416L309.102 70.3808L310.028 69.991L310.222 70.4518L311.147 70.062L310.953 69.6012L311.879 69.2114L312.073 69.6722L312.998 69.2824L312.804 68.8216L313.73 68.4318L313.924 68.8926L314.849 68.5028L314.655 68.042L315.581 67.6522L315.775 68.113L316.7 67.7232L316.506 67.2624L317.432 66.8726L317.626 67.3334L318.551 66.9436L318.357 66.4828L319.282 66.093L319.477 66.5538L320.402 66.164L320.208 65.7032L321.133 65.3134L321.328 65.7741L322.253 65.3843L322.059 64.9235L322.984 64.5337L323.178 64.9945L324.104 64.6047L323.91 64.1439L324.835 63.7541L325.029 64.2149L325.955 63.8251L325.761 63.3643L326.686 62.9745L326.88 63.4353L327.806 63.0455L327.612 62.5847Z" fill="white" stroke="black" stroke-dasharray="1 1"/>
<path d="M391.5 89L266.5 216" stroke="black" stroke-dasharray="1 1"/>
<path d="M329 62.5V242.5" stroke="black" stroke-dasharray="1 1"/>
<path d="M266.5 89L391.5 216" stroke="black" stroke-dasharray="1 1"/>
<path d="M240 152.5H417.5" stroke="black" stroke-dasharray="1 1"/>
<circle cx="329" cy="63" r="2.75" fill="white" stroke="black" stroke-width="0.5"/>
<circle cx="329" cy="152" r="2.75" fill="white" stroke="black" stroke-width="0.5"/>
<circle cx="267" cy="89" r="2.75" fill="white" stroke="black" stroke-width="0.5"/>
<circle cx="266" cy="216" r="2.75" fill="white" stroke="black" stroke-width="0.5"/>
<circle cx="240" cy="152" r="2.75" fill="white" stroke="black" stroke-width="0.5"/>
<circle cx="391" cy="89" r="2.75" fill="white" stroke="black" stroke-width="0.5"/>
<circle cx="417" cy="152" r="2.75" fill="white" stroke="black" stroke-width="0.5"/>
<circle cx="391" cy="216" r="2.75" fill="white" stroke="black" stroke-width="0.5"/>
<circle cx="329" cy="242" r="2.75" fill="white" stroke="black" stroke-width="0.5"/>
<path d="M473.452 88.8872L536 62.5425L598.548 88.8872L624.46 152.5L598.548 216.113L536 242.457L473.452 216.113L447.54 152.5L473.452 88.8872Z" fill="#C4C4C4" stroke="black"/>
<path d="M598.5 89L473.5 216" stroke="black"/>
<path d="M536 62.5V242.5" stroke="black"/>
<path d="M473.5 89L598.5 216" stroke="black"/>
<path d="M447 152.5H624.5" stroke="black"/>
<circle cx="536" cy="63" r="2.75" fill="white" stroke="black" stroke-width="0.5"/>
<circle cx="536" cy="152" r="2.75" fill="white" stroke="black" stroke-width="0.5"/>
<circle cx="474" cy="89" r="2.75" fill="white" stroke="black" stroke-width="0.5"/>
<circle cx="473" cy="216" r="2.75" fill="white" stroke="black" stroke-width="0.5"/>
<circle cx="447" cy="152" r="2.75" fill="white" stroke="black" stroke-width="0.5"/>
<circle cx="598" cy="89" r="2.75" fill="white" stroke="black" stroke-width="0.5"/>
<circle cx="624" cy="152" r="2.75" fill="white" stroke="black" stroke-width="0.5"/>
<circle cx="598" cy="216" r="2.75" fill="white" stroke="black" stroke-width="0.5"/>
<circle cx="536" cy="242" r="2.75" fill="white" stroke="black" stroke-width="0.5"/>
<path d="M185.491 89.8781L185.119 88.9639L184.656 89.1526L184.548 88.8872L184.276 88.7727L184.47 88.3119L183.544 87.9221L183.35 88.3829L182.425 87.9931L182.619 87.5323L181.693 87.1425L181.499 87.6033L180.574 87.2135L180.768 86.7527L179.842 86.3629L179.648 86.8237L178.723 86.4339L178.917 85.9731L177.991 85.5833L177.797 86.0441L176.872 85.6543L177.066 85.1935L176.14 84.8037L175.946 85.2645L175.021 84.8747L175.215 84.4139L174.29 84.0241L174.095 84.4849L173.17 84.0951L173.364 83.6343L172.439 83.2444L172.244 83.7052L171.319 83.3154L171.513 82.8546L170.588 82.4648L170.394 82.9256L169.468 82.5358L169.662 82.075L168.737 81.6852L168.543 82.146L167.617 81.7562L167.811 81.2954L166.886 80.9056L166.692 81.3664L165.766 80.9766L165.96 80.5158L165.035 80.126L164.841 80.5868L163.915 80.197L164.109 79.7362L163.184 79.3464L162.99 79.8072L162.064 79.4174L162.258 78.9566L161.333 78.5668L161.139 79.0276L160.213 78.6378L160.407 78.177L159.482 77.7872L159.288 78.248L158.362 77.8581L158.556 77.3974L157.631 77.0075L157.437 77.4683L156.511 77.0785L156.705 76.6177L155.78 76.2279L155.586 76.6887L154.66 76.2989L154.854 75.8381L153.929 75.4483L153.735 75.9091L152.809 75.5193L153.004 75.0585L152.078 74.6687L151.884 75.1295L150.958 74.7397L151.153 74.2789L150.227 73.8891L150.033 74.3499L149.108 73.9601L149.302 73.4993L148.376 73.1095L148.182 73.5703L147.257 73.1805L147.451 72.7197L146.525 72.3299L146.331 72.7907L145.406 72.4009L145.6 71.9401L144.674 71.5503L144.48 72.0111L143.555 71.6212L143.749 71.1605L142.823 70.7706L142.629 71.2314L141.704 70.8416L141.898 70.3808L140.972 69.991L140.778 70.4518L139.853 70.062L140.047 69.6012L139.121 69.2114L138.927 69.6722L138.002 69.2824L138.196 68.8216L137.27 68.4318L137.076 68.8926L136.151 68.5028L136.345 68.042L135.419 67.6522L135.225 68.113L134.3 67.7232L134.494 67.2624L133.568 66.8726L133.374 67.3334L132.449 66.9436L132.643 66.4828L131.718 66.093L131.523 66.5538L130.598 66.164L130.792 65.7032L129.867 65.3134L129.673 65.7742L128.747 65.3844L128.941 64.9236L128.016 64.5338L127.822 64.9945L126.896 64.6047L127.09 64.1439L126.165 63.7541L125.971 64.2149L125.045 63.8251L125.239 63.3643L124.314 62.9745L124.12 63.4353L123.194 63.0455L123.388 62.5847L122.463 62.1949L122.269 62.6557L122 62.5425L121.731 62.6557L121.537 62.1949L120.612 62.5847L120.806 63.0455L119.88 63.4353L119.686 62.9745L118.761 63.3643L118.955 63.8251L118.029 64.2149L117.835 63.7541L116.91 64.1439L117.104 64.6047L116.178 64.9945L115.984 64.5337L115.059 64.9235L115.253 65.3843L114.328 65.7741L114.133 65.3134L113.208 65.7032L113.402 66.164L112.477 66.5538L112.282 66.093L111.357 66.4828L111.551 66.9436L110.626 67.3334L110.432 66.8726L109.506 67.2624L109.7 67.7232L108.775 68.113L108.581 67.6522L107.655 68.042L107.849 68.5028L106.924 68.8926L106.73 68.4318L105.804 68.8216L105.998 69.2824L105.073 69.6722L104.879 69.2114L103.953 69.6012L104.147 70.062L103.222 70.4518L103.028 69.991L102.102 70.3808L102.296 70.8416L101.371 71.2314L101.177 70.7706L100.251 71.1605L100.445 71.6212L99.5199 72.0111L99.3258 71.5503L98.4003 71.9401L98.5944 72.4009L97.6689 72.7907L97.4748 72.3299L96.5494 72.7197L96.7434 73.1805L95.818 73.5703L95.6239 73.1095L94.6984 73.4993L94.8925 73.9601L93.967 74.3499L93.7729 73.8891L92.8474 74.2789L93.0415 74.7397L92.116 75.1295L91.922 74.6687L90.9965 75.0585L91.1906 75.5193L90.2651 75.9091L90.071 75.4483L89.1455 75.8381L89.3396 76.2989L88.4141 76.6887L88.2201 76.2279L87.2946 76.6177L87.4887 77.0785L86.5632 77.4683L86.3691 77.0075L85.4436 77.3974L85.6377 77.8581L84.7122 78.248L84.5181 77.7872L83.5927 78.177L83.7868 78.6378L82.8613 79.0276L82.6672 78.5668L81.7417 78.9566L81.9358 79.4174L81.0103 79.8072L80.8162 79.3464L79.8908 79.7362L80.0848 80.197L79.1594 80.5868L78.9653 80.126L78.0398 80.5158L78.2339 80.9766L77.3084 81.3664L77.1143 80.9056L76.1889 81.2954L76.3829 81.7562L75.4575 82.146L75.2634 81.6852L74.3379 82.075L74.532 82.5358L73.6065 82.9256L73.4124 82.4648L72.4869 82.8546L72.681 83.3154L71.7556 83.7052L71.5615 83.2444L70.636 83.6342L70.8301 84.095L69.9046 84.4848L69.7105 84.0241L68.785 84.4139L68.9791 84.8747L68.0536 85.2645L67.8596 84.8037L66.9341 85.1935L67.1282 85.6543L66.2027 86.0441L66.0086 85.5833L65.0831 85.9731L65.2772 86.4339L64.3517 86.8237L64.1577 86.3629L63.2322 86.7527L63.4263 87.2135L62.5008 87.6033L62.3067 87.1425L61.3812 87.5323L61.5753 87.9931L60.6498 88.3829L60.4557 87.9221L59.5303 88.3119L59.7244 88.7727L59.4524 88.8872L59.3444 89.1526L58.8813 88.9639L58.5089 89.8781L58.972 90.0667L58.5996 90.9809L58.1365 90.7923L57.7641 91.7065L58.2272 91.8951L57.8548 92.8093L57.3917 92.6207L57.0193 93.5349L57.4824 93.7235L57.11 94.6377L56.6469 94.4491L56.2746 95.3632L56.7376 95.5519L56.3652 96.4661L55.9022 96.2774L55.5298 97.1916L55.9928 97.3802L55.6204 98.2944L55.1574 98.1058L54.785 99.02L55.248 99.2086L54.8756 100.123L54.4126 99.9342L54.0402 100.848L54.5032 101.037L54.1309 101.951L53.6678 101.763L53.2954 102.677L53.7585 102.865L53.3861 103.78L52.923 103.591L52.5506 104.505L53.0137 104.694L52.6413 105.608L52.1782 105.419L51.8058 106.334L52.2689 106.522L51.8965 107.436L51.4334 107.248L51.0611 108.162L51.5241 108.351L51.1517 109.265L50.6887 109.076L50.3163 109.99L50.7793 110.179L50.4069 111.093L49.9439 110.904L49.5715 111.819L50.0345 112.007L49.6621 112.921L49.1991 112.733L48.8267 113.647L49.2897 113.836L48.9174 114.75L48.4543 114.561L48.0819 115.475L48.545 115.664L48.1726 116.578L47.7095 116.39L47.3371 117.304L47.8002 117.492L47.4278 118.407L46.9647 118.218L46.5923 119.132L47.0554 119.321L46.683 120.235L46.2199 120.046L45.8475 120.961L46.3106 121.149L45.9382 122.063L45.4752 121.875L45.1028 122.789L45.5658 122.978L45.1934 123.892L44.7304 123.703L44.358 124.617L44.821 124.806L44.4486 125.72L43.9856 125.531L43.6132 126.446L44.0762 126.634L43.7039 127.548L43.2408 127.36L42.8684 128.274L43.3315 128.463L42.9591 129.377L42.496 129.188L42.1236 130.102L42.5867 130.291L42.2143 131.205L41.7512 131.017L41.3788 131.931L41.8419 132.119L41.4695 133.034L41.0064 132.845L40.634 133.759L41.0971 133.948L40.7247 134.862L40.2617 134.673L39.8893 135.588L40.3523 135.776L39.9799 136.69L39.5169 136.502L39.1445 137.416L39.6075 137.605L39.2351 138.519L38.7721 138.33L38.3997 139.244L38.8627 139.433L38.4904 140.347L38.0273 140.158L37.6549 141.073L38.118 141.261L37.7456 142.175L37.2825 141.987L36.9101 142.901L37.3732 143.09L37.0008 144.004L36.5377 143.815L36.1653 144.729L36.6284 144.918L36.256 145.832L35.7929 145.644L35.4205 146.558L35.8836 146.746L35.5112 147.661L35.0482 147.472L34.6758 148.386L35.1388 148.575L34.7664 149.489L34.3034 149.3L33.931 150.215L34.394 150.403L34.0216 151.317L33.5586 151.129L33.1862 152.043L33.6493 152.232L33.5399 152.5L33.6493 152.768L33.1862 152.957L33.5586 153.871L34.0216 153.683L34.394 154.597L33.931 154.785L34.3034 155.7L34.7664 155.511L35.1388 156.425L34.6758 156.614L35.0482 157.528L35.5112 157.339L35.8836 158.254L35.4206 158.442L35.7929 159.356L36.256 159.168L36.6284 160.082L36.1653 160.271L36.5377 161.185L37.0008 160.996L37.3732 161.91L36.9101 162.099L37.2825 163.013L37.7456 162.825L38.118 163.739L37.6549 163.927L38.0273 164.842L38.4904 164.653L38.8628 165.567L38.3997 165.756L38.7721 166.67L39.2351 166.481L39.6075 167.395L39.1445 167.584L39.5169 168.498L39.9799 168.31L40.3523 169.224L39.8893 169.412L40.2617 170.327L40.7247 170.138L41.0971 171.052L40.6341 171.241L41.0064 172.155L41.4695 171.966L41.8419 172.881L41.3788 173.069L41.7512 173.983L42.2143 173.795L42.5867 174.709L42.1236 174.898L42.496 175.812L42.9591 175.623L43.3315 176.537L42.8684 176.726L43.2408 177.64L43.7039 177.452L44.0763 178.366L43.6132 178.554L43.9856 179.469L44.4486 179.28L44.821 180.194L44.358 180.383L44.7304 181.297L45.1934 181.108L45.5658 182.022L45.1028 182.211L45.4752 183.125L45.9382 182.937L46.3106 183.851L45.8476 184.039L46.2199 184.954L46.683 184.765L47.0554 185.679L46.5923 185.868L46.9647 186.782L47.4278 186.593L47.8002 187.508L47.3371 187.696L47.7095 188.61L48.1726 188.422L48.545 189.336L48.0819 189.525L48.4543 190.439L48.9174 190.25L49.2898 191.164L48.8267 191.353L49.1991 192.267L49.6621 192.079L50.0345 192.993L49.5715 193.181L49.9439 194.096L50.4069 193.907L50.7793 194.821L50.3163 195.01L50.6887 195.924L51.1517 195.735L51.5241 196.65L51.0611 196.838L51.4334 197.752L51.8965 197.564L52.2689 198.478L51.8058 198.667L52.1782 199.581L52.6413 199.392L53.0137 200.306L52.5506 200.495L52.923 201.409L53.3861 201.22L53.7585 202.135L53.2954 202.323L53.6678 203.237L54.1309 203.049L54.5033 203.963L54.0402 204.152L54.4126 205.066L54.8756 204.877L55.248 205.791L54.785 205.98L55.1574 206.894L55.6204 206.706L55.9928 207.62L55.5298 207.808L55.9022 208.723L56.3652 208.534L56.7376 209.448L56.2746 209.637L56.6469 210.551L57.11 210.362L57.4824 211.277L57.0193 211.465L57.3917 212.379L57.8548 212.191L58.2272 213.105L57.7641 213.294L58.1365 214.208L58.5996 214.019L58.972 214.933L58.5089 215.122L58.8813 216.036L59.3444 215.847L59.4524 216.113L59.7243 216.227L59.5302 216.688L60.4557 217.078L60.6498 216.617L61.5753 217.007L61.3812 217.468L62.3067 217.857L62.5008 217.397L63.4262 217.786L63.2321 218.247L64.1576 218.637L64.3517 218.176L65.2772 218.566L65.0831 219.027L66.0086 219.417L66.2027 218.956L67.1281 219.346L66.9341 219.807L67.8595 220.196L68.0536 219.736L68.9791 220.125L68.785 220.586L69.7105 220.976L69.9046 220.515L70.8301 220.905L70.636 221.366L71.5614 221.756L71.7555 221.295L72.681 221.685L72.4869 222.145L73.4124 222.535L73.6065 222.074L74.532 222.464L74.3379 222.925L75.2634 223.315L75.4574 222.854L76.3829 223.244L76.1888 223.705L77.1143 224.094L77.3084 223.634L78.2339 224.023L78.0398 224.484L78.9653 224.874L79.1594 224.413L80.0848 224.803L79.8908 225.264L80.8162 225.654L81.0103 225.193L81.9358 225.583L81.7417 226.043L82.6672 226.433L82.8613 225.972L83.7868 226.362L83.5927 226.823L84.5181 227.213L84.7122 226.752L85.6377 227.142L85.4436 227.603L86.3691 227.992L86.5632 227.532L87.4887 227.921L87.2946 228.382L88.2201 228.772L88.4141 228.311L89.3396 228.701L89.1455 229.162L90.071 229.552L90.2651 229.091L91.1906 229.481L90.9965 229.941L91.922 230.331L92.1161 229.87L93.0415 230.26L92.8474 230.721L93.7729 231.111L93.967 230.65L94.8925 231.04L94.6984 231.501L95.6239 231.891L95.818 231.43L96.7434 231.82L96.5494 232.28L97.4748 232.67L97.6689 232.209L98.5944 232.599L98.4003 233.06L99.3258 233.45L99.5199 232.989L100.445 233.379L100.251 233.84L101.177 234.229L101.371 233.769L102.296 234.158L102.102 234.619L103.028 235.009L103.222 234.548L104.147 234.938L103.953 235.399L104.879 235.789L105.073 235.328L105.998 235.718L105.804 236.178L106.73 236.568L106.924 236.107L107.849 236.497L107.655 236.958L108.581 237.348L108.775 236.887L109.7 237.277L109.506 237.738L110.432 238.127L110.626 237.667L111.551 238.056L111.357 238.517L112.282 238.907L112.477 238.446L113.402 238.836L113.208 239.297L114.133 239.687L114.327 239.226L115.253 239.616L115.059 240.076L115.984 240.466L116.178 240.005L117.104 240.395L116.91 240.856L117.835 241.246L118.029 240.785L118.955 241.175L118.761 241.636L119.686 242.025L119.88 241.565L120.806 241.954L120.612 242.415L121.537 242.805L121.731 242.344L122 242.457L122.269 242.344L122.463 242.805L123.388 242.415L123.194 241.954L124.12 241.565L124.314 242.025L125.239 241.636L125.045 241.175L125.971 240.785L126.165 241.246L127.09 240.856L126.896 240.395L127.822 240.005L128.016 240.466L128.941 240.076L128.747 239.616L129.672 239.226L129.867 239.687L130.792 239.297L130.598 238.836L131.523 238.446L131.718 238.907L132.643 238.517L132.449 238.056L133.374 237.667L133.568 238.127L134.494 237.738L134.3 237.277L135.225 236.887L135.419 237.348L136.345 236.958L136.151 236.497L137.076 236.107L137.27 236.568L138.196 236.178L138.002 235.718L138.927 235.328L139.121 235.789L140.047 235.399L139.853 234.938L140.778 234.548L140.972 235.009L141.898 234.619L141.704 234.158L142.629 233.769L142.823 234.229L143.749 233.84L143.555 233.379L144.48 232.989L144.674 233.45L145.6 233.06L145.406 232.599L146.331 232.209L146.525 232.67L147.451 232.28L147.257 231.82L148.182 231.43L148.376 231.891L149.302 231.501L149.108 231.04L150.033 230.65L150.227 231.111L151.153 230.721L150.958 230.26L151.884 229.87L152.078 230.331L153.004 229.941L152.809 229.481L153.735 229.091L153.929 229.552L154.854 229.162L154.66 228.701L155.586 228.311L155.78 228.772L156.705 228.382L156.511 227.921L157.437 227.532L157.631 227.992L158.556 227.603L158.362 227.142L159.288 226.752L159.482 227.213L160.407 226.823L160.213 226.362L161.139 225.972L161.333 226.433L162.258 226.043L162.064 225.583L162.99 225.193L163.184 225.654L164.109 225.264L163.915 224.803L164.841 224.413L165.035 224.874L165.96 224.484L165.766 224.023L166.692 223.634L166.886 224.094L167.811 223.705L167.617 223.244L168.543 222.854L168.737 223.315L169.662 222.925L169.468 222.464L170.393 222.074L170.588 222.535L171.513 222.145L171.319 221.685L172.244 221.295L172.439 221.756L173.364 221.366L173.17 220.905L174.095 220.515L174.289 220.976L175.215 220.586L175.021 220.125L175.946 219.736L176.14 220.196L177.066 219.807L176.872 219.346L177.797 218.956L177.991 219.417L178.917 219.027L178.723 218.566L179.648 218.176L179.842 218.637L180.768 218.247L180.574 217.787L181.499 217.397L181.693 217.857L182.619 217.468L182.425 217.007L183.35 216.617L183.544 217.078L184.47 216.688L184.276 216.227L184.548 216.113L184.656 215.847L185.119 216.036L185.491 215.122L185.028 214.933L185.4 214.019L185.863 214.208L186.236 213.294L185.773 213.105L186.145 212.191L186.608 212.379L186.981 211.465L186.518 211.277L186.89 210.362L187.353 210.551L187.725 209.637L187.262 209.448L187.635 208.534L188.098 208.723L188.47 207.808L188.007 207.62L188.38 206.706L188.843 206.894L189.215 205.98L188.752 205.791L189.124 204.877L189.587 205.066L189.96 204.152L189.497 203.963L189.869 203.049L190.332 203.237L190.705 202.323L190.242 202.135L190.614 201.22L191.077 201.409L191.449 200.495L190.986 200.306L191.359 199.392L191.822 199.581L192.194 198.667L191.731 198.478L192.104 197.564L192.567 197.752L192.939 196.838L192.476 196.649L192.848 195.735L193.311 195.924L193.684 195.01L193.221 194.821L193.593 193.907L194.056 194.096L194.429 193.181L193.965 192.993L194.338 192.079L194.801 192.267L195.173 191.353L194.71 191.164L195.083 190.25L195.546 190.439L195.918 189.525L195.455 189.336L195.827 188.422L196.29 188.61L196.663 187.696L196.2 187.508L196.572 186.593L197.035 186.782L197.408 185.868L196.945 185.679L197.317 184.765L197.78 184.954L198.152 184.039L197.689 183.851L198.062 182.937L198.525 183.125L198.897 182.211L198.434 182.022L198.807 181.108L199.27 181.297L199.642 180.383L199.179 180.194L199.551 179.28L200.014 179.469L200.387 178.554L199.924 178.366L200.296 177.452L200.759 177.64L201.132 176.726L200.669 176.537L201.041 175.623L201.504 175.812L201.876 174.898L201.413 174.709L201.786 173.795L202.249 173.983L202.621 173.069L202.158 172.881L202.531 171.966L202.994 172.155L203.366 171.241L202.903 171.052L203.275 170.138L203.738 170.327L204.111 169.412L203.648 169.224L204.02 168.31L204.483 168.498L204.856 167.584L204.392 167.395L204.765 166.481L205.228 166.67L205.6 165.756L205.137 165.567L205.51 164.653L205.973 164.842L206.345 163.927L205.882 163.739L206.254 162.825L206.717 163.013L207.09 162.099L206.627 161.91L206.999 160.996L207.462 161.185L207.835 160.271L207.372 160.082L207.744 159.168L208.207 159.356L208.579 158.442L208.116 158.254L208.489 157.339L208.952 157.528L209.324 156.614L208.861 156.425L209.234 155.511L209.697 155.7L210.069 154.785L209.606 154.597L209.978 153.683L210.441 153.871L210.814 152.957L210.351 152.768L210.46 152.5L210.351 152.232L210.814 152.043L210.441 151.129L209.978 151.317L209.606 150.403L210.069 150.215L209.697 149.3L209.234 149.489L208.861 148.575L209.324 148.386L208.952 147.472L208.489 147.661L208.116 146.746L208.579 146.558L208.207 145.644L207.744 145.832L207.372 144.918L207.835 144.729L207.462 143.815L206.999 144.004L206.627 143.09L207.09 142.901L206.717 141.987L206.254 142.175L205.882 141.261L206.345 141.073L205.973 140.158L205.51 140.347L205.137 139.433L205.6 139.244L205.228 138.33L204.765 138.519L204.392 137.605L204.856 137.416L204.483 136.502L204.02 136.69L203.648 135.776L204.111 135.588L203.738 134.673L203.275 134.862L202.903 133.948L203.366 133.759L202.994 132.845L202.531 133.034L202.158 132.119L202.621 131.931L202.249 131.017L201.786 131.205L201.413 130.291L201.876 130.102L201.504 129.188L201.041 129.377L200.669 128.463L201.132 128.274L200.759 127.36L200.296 127.548L199.924 126.634L200.387 126.446L200.014 125.531L199.551 125.72L199.179 124.806L199.642 124.617L199.27 123.703L198.807 123.892L198.434 122.978L198.897 122.789L198.525 121.875L198.062 122.063L197.689 121.149L198.152 120.961L197.78 120.046L197.317 120.235L196.945 119.321L197.408 119.132L197.035 118.218L196.572 118.407L196.2 117.492L196.663 117.304L196.29 116.39L195.827 116.578L195.455 115.664L195.918 115.475L195.546 114.561L195.083 114.75L194.71 113.836L195.173 113.647L194.801 112.733L194.338 112.921L193.965 112.007L194.429 111.819L194.056 110.904L193.593 111.093L193.221 110.179L193.684 109.99L193.311 109.076L192.848 109.265L192.476 108.351L192.939 108.162L192.567 107.248L192.104 107.436L191.731 106.522L192.194 106.333L191.822 105.419L191.359 105.608L190.986 104.694L191.449 104.505L191.077 103.591L190.614 103.78L190.242 102.865L190.705 102.677L190.332 101.763L189.869 101.951L189.497 101.037L189.96 100.848L189.587 99.9342L189.124 100.123L188.752 99.2086L189.215 99.02L188.843 98.1058L188.38 98.2944L188.007 97.3802L188.47 97.1916L188.098 96.2774L187.635 96.4661L187.262 95.5519L187.725 95.3632L187.353 94.4491L186.89 94.6377L186.518 93.7235L186.981 93.5349L186.608 92.6207L186.145 92.8093L185.773 91.8951L186.236 91.7065L185.863 90.7923L185.4 90.9809L185.028 90.0668L185.491 89.8781Z" fill="url(#paint2_linear)" stroke="black" stroke-dasharray="1 1"/>
<path d="M184.5 89L59.5 216" stroke="black" stroke-dasharray="1 1"/>
<path d="M122 62.5V242.5" stroke="black" stroke-dasharray="1 1"/>
<path d="M59.5 89L184.5 216" stroke="black" stroke-dasharray="1 1"/>
<path d="M33 152.5H210.5" stroke="black"/>
<path d="M33.5 152.5L59.5 216L122 242.5L184.5 216L210.5 152.5" stroke="black"/>
<path d="M59 216.5L122 152.5M122 152.5L184.5 216M122 152.5V242" stroke="black"/>
<circle cx="122" cy="63" r="2.75" fill="white" stroke="black" stroke-width="0.5"/>
<circle cx="122" cy="152" r="2.75" fill="white" stroke="black" stroke-width="0.5"/>
<circle cx="60" cy="89" r="2.75" fill="white" stroke="black" stroke-width="0.5"/>
<circle cx="59" cy="216" r="2.75" fill="white" stroke="black" stroke-width="0.5"/>
<circle cx="33" cy="152" r="2.75" fill="white" stroke="black" stroke-width="0.5"/>
<circle cx="184" cy="89" r="2.75" fill="white" stroke="black" stroke-width="0.5"/>
<circle cx="210" cy="152" r="2.75" fill="white" stroke="black" stroke-width="0.5"/>
<circle cx="184" cy="216" r="2.75" fill="white" stroke="black" stroke-width="0.5"/>
<circle cx="122" cy="242" r="2.75" fill="white" stroke="black" stroke-width="0.5"/>
<defs>
<radialGradient id="paint0_angular" cx="0" cy="0" r="1" gradientUnits="userSpaceOnUse" gradientTransform="translate(743 152.5) rotate(90) scale(90.5 89)">
<stop offset="0.123695" stop-color="#C4C4C4"/>
<stop offset="0.123795" stop-color="white" stop-opacity="0.12864"/>
<stop offset="0.8749" stop-color="white" stop-opacity="0.355533"/>
<stop offset="0.875" stop-color="#C4C4C4"/>
</radialGradient>
<radialGradient id="paint1_angular" cx="0" cy="0" r="1" gradientUnits="userSpaceOnUse" gradientTransform="translate(743 152.5) rotate(90) scale(90.5 89)">
<stop offset="0.3749" stop-color="white" stop-opacity="0"/>
<stop offset="0.375" stop-color="#C4C4C4"/>
<stop offset="0.625" stop-color="#C4C4C4"/>
<stop offset="0.6251" stop-color="white" stop-opacity="0"/>
</radialGradient>
<linearGradient id="paint2_linear" x1="122" y1="62" x2="122" y2="243" gradientUnits="userSpaceOnUse">
<stop offset="0.5" stop-color="#C4C4C4" stop-opacity="0"/>
<stop offset="0.5001" stop-color="#C4C4C4"/>
</linearGradient>
</defs>
</svg>
